<?xml version="1.0" encoding="utf-8"?>
<!-- Generator: Adobe Illustrator 23.0.3, SVG Export Plug-In . SVG Version: 6.00 Build 0)  -->
<svg version="1.1" xmlns="http://www.w3.org/2000/svg" xmlns:xlink="http://www.w3.org/1999/xlink" x="0px" y="0px"
	 viewBox="0 0 455.71 334.08" style="enable-background:new 0 0 455.71 334.08;" xml:space="preserve">
<style type="text/css">
	.st0{display:none;}
	.st1{display:inline;}
	.st2{fill:none;stroke:#FFFFFF;stroke-width:2;stroke-miterlimit:10;}
	.st3{fill:none;stroke:#FFFFFF;stroke-width:4;stroke-miterlimit:10;}
</style>
<g id="Camada_2" class="st0">
	<rect x="83.79" y="-1175.27" class="st1" width="369.41" height="310.66"/>
	<rect x="472.91" y="-1175.27" class="st1" width="369.41" height="310.66"/>
	<rect x="862.13" y="-1175.27" class="st1" width="369.41" height="310.66"/>
	<rect x="1251.35" y="-1175.27" class="st1" width="369.41" height="310.66"/>
	<rect x="411.9" y="-904.91" class="st1" width="41.29" height="41.29"/>
</g>
<g id="Layer_1">
	<g>
		<path class="st2" d="M330.98,285.21c-21.25-3.74-44.79-5.81-69.57-5.81c-44.16,0-84.4,6.6-114.73,17.43"/>
		<path class="st2" d="M127.44,304.92c-16.27,8.08-27.92,17.68-33.39,28.16h334.72c-9.89-18.96-40.02-35.01-81.1-44.5"/>
		<path class="st3" d="M364.2,167.71c-0.24-10.36-11.23-26.21-11.23-26.21c1.12,12.53-5.23,25.73-5.23,25.73
			c1.48-0.54,3.79-0.67,6.2-0.6c-2.79,9.8-7.88,17.39-7.88,17.39c1.59-0.26,3.91,0.05,6.35,0.6c-3.55,10.18-9.83,18.73-9.83,18.73
			c1.92,0.06,5.03,0.62,8.23,1.32c-3.13,9.96-9.14,18.5-9.14,18.5c1.54,0.02,3.87,0.36,6.39,0.82c-3.94,10.73-10.1,18.88-10.1,18.88
			c2.14-0.32,5.34,0.19,8.58,0.98c-4.61,10.51-11.21,18.16-11.21,18.16c1.74-0.07,4.15,0.53,6.68,1.4
			c-6.79,9.81-15.85,17.05-15.85,17.05c1.79,0.55,4.43,1.76,7.24,3.18c-6.51,9.43-15.23,16.39-15.23,16.39
			c5.58,1.71,19.78,10.14,19.78,10.14c2.54-5.72,2.67-15.12,2.19-22.94c3.74,2.07,6.65,3.8,6.65,3.8
			c2.73-6.17,2.79-16.43,2.24-24.73c3.35,1.56,5.88,2.94,5.88,2.94c1.58-6.44,0.48-15.61-1.04-23.25c2.79,0.94,4.77,1.71,4.77,1.71
			c1.11-6.32-0.59-14.87-2.66-22.05c2.82,0.65,4.88,1.18,4.88,1.18c0.78-5.7-1.63-14.13-4.05-20.75c3.35,0.84,5.89,1.54,5.89,1.54
			c0.9-5.74-1.23-14.19-3.52-21.06c2.52,0.84,4.33,1.56,4.33,1.56c0.73-6.06-1.49-14.46-3.75-21.04
			C362.31,167.38,364.2,167.71,364.2,167.71z"/>
		<path class="st3" d="M354.63,144.16c0,0-10.53-44.52-31.17-52.7c-20.64-8.18-53.85-8.2-53.85-8.2s7.5,23.02,12.21,25.17
			c4.71,2.15,21.08-1.83,21.08-1.83l-11.25,12.43l13.8,9.55c0,0,10.79-10.19,16.23-10.57l-5.01,15.68
			C316.67,133.7,338.22,137.03,354.63,144.16z"/>
		<path class="st3" d="M354.13,144.11c0,0,1.82-36.84,18.76-47.51c16.93-10.66,40.67-12.09,40.67-12.09l-15.26,24.08l-10.79-4.1
			l3.85,13.24l-7.74,12.75l-13.94-5.94l8.15,12.12C377.82,136.66,365.19,139.9,354.13,144.11z"/>
		<path class="st3" d="M281.5,199.37c0,0,7.4-39.1,17.3-46.72c9.9-7.62,55.46-8.72,55.46-8.72l-18.42,25.6l-15.8-4.63l7.52,14.86
			l-13.05,12.84c0,0-6.58-20.57-9.25-19.13c-2.67,1.44-4.4,25.16-4.4,25.16L281.5,199.37z"/>
		<path class="st3" d="M452.57,179.38c0,0-14.08-35.46-36.25-39.42c-22.17-3.96-62.49,3.73-62.49,3.73l32.13,19.81l11.94-11
			l-0.61,17.64l26.11,5.04l-1.77-16.55l11.88,17.96L452.57,179.38z"/>
		<path class="st3" d="M401.63,226.86c0,0,12.88-29.62,5.56-39.49c-7.32-9.87-53.01-43.24-53.01-43.24l22.23,37.79l9.5-2.21
			l-6.05,8.97l6.23,17.66l10.64-7.4l-6.03,12.56C390.7,211.5,395.27,220.26,401.63,226.86z"/>
		<path class="st3" d="M140.03,285.06c4.06-1.26,7.87-2.28,10.39-2.61c0,0-10.54-11.62-17.46-26.16c3.58-0.6,6.93-0.86,9.24-0.38
			c0,0-7.16-11.63-11-26.61c4.51-0.33,8.9-0.29,11.7,0.61c0,0-6.44-12.2-9.35-27.31c3.47-0.05,6.68,0.02,8.74,0.34
			c0,0-6.17-12.67-8.16-26.59c4.44-0.21,8.72-0.26,11.31,0.08c0,0-6.53-12.75-9.03-27.06c3.38-0.19,6.56-0.09,8.63,0.61
			c0,0-5.13-11.21-6.71-24.84c3.25,0.45,6.3,1.13,8.17,2.18c0,0-5.59-18.94-1.32-35.32c0,0-18.2,18.6-20.81,32.3
			c0,0,2.61-0.02,6.11,0.15c-4.47,8.23-9.3,18.89-9.66,27.1c0,0,2.59-0.55,6.14-1.11c-4.59,8.62-9.31,19.36-9.36,27.18
			c0,0,3.55-0.37,8.22-0.74c-4.69,8.25-9.78,18.91-9.99,26.65c0,0,2.87-0.24,6.78-0.48c-4.35,9.08-8.52,20.06-8.42,28.69
			c0,0,2.81-0.59,6.76-1.21c-3.72,9.81-7.22,21.74-6.52,30.65c0,0,3.69-1.27,8.52-2.6c-2.57,10.9-4.76,24.54-2.46,33.34
			c0,0,4.27-1.64,9.73-3.57c-2.36,10.27-4.26,22.79-2.12,30.95c0,0,20.87-8.03,28.72-9.06C156.8,310.22,146.67,299.03,140.03,285.06
			z"/>
		<path class="st3" d="M142.37,95.14c0,0,23.92-56.77,53.35-63.04c29.43-6.27,73.88,1.08,73.88,1.08s-15.12,28.9-21.9,30.7
			c-6.77,1.8-27.81-7.12-27.81-7.12l12.31,19.01l-20.58,9.62c0,0-12.2-15.93-19.39-17.65l3.24,21.94
			C195.49,89.69,165.9,89.32,142.37,95.14z"/>
		<path class="st3" d="M143.05,95.18c0,0,5.69-49.33-14.63-67.25c-20.31-17.92-51.77-25.1-51.77-25.1L91.76,38.2l15.35-3.05
			l-8.08,16.73l7.55,18.66l19.98-4.8l-13.58,14.28C112.98,80.02,129.18,87.13,143.05,95.18z"/>
		<path class="st3" d="M228.07,184.71c0,0-1.29-53.56-12.86-65.88c-11.57-12.32-72.31-23.91-72.31-23.91L161.91,133l22.17-2.63
			l-13.34,18.06l14.63,19.95c0,0,13.34-25.85,16.6-23.34c3.26,2.51,0.33,34.39,0.33,34.39L228.07,184.71z"/>
		<path class="st3" d="M3.51,120.13c0,0,26.67-43.96,57.22-44.28c30.55-0.32,82.82,18.85,82.82,18.85l-47.37,19.17L82.62,96.59
			l-3.08,23.56l-36.05,0.88l6.01-21.58l-19.86,21.21L3.51,120.13z"/>
		<path class="st3" d="M61.22,194.51c0,0-10.71-42.2,1.27-53.68c11.98-11.48,80.49-45.63,80.49-45.63l-38.09,45.24l-12.23-5.04
			l6.12,13.25l-12.23,22.06l-12.61-12.2l5.31,18.01C79.24,176.53,71.18,187.15,61.22,194.51z"/>
	</g>
</g>
</svg>
