<?xml version="1.0" encoding="utf-8"?>
<!-- Generator: Adobe Illustrator 23.0.3, SVG Export Plug-In . SVG Version: 6.00 Build 0)  -->
<svg version="1.1" xmlns="http://www.w3.org/2000/svg" xmlns:xlink="http://www.w3.org/1999/xlink" x="0px" y="0px"
	 viewBox="0 0 455.72 376.77" style="enable-background:new 0 0 455.72 376.77;" xml:space="preserve">
<style type="text/css">
	.st0{display:none;}
	.st1{display:inline;}
	.st2{fill:#FFFFFF;}
	.st3{fill:none;stroke:#FFFFFF;stroke-width:2;stroke-miterlimit:10;}
	.st4{fill:none;stroke:#FFFFFF;stroke-width:4;stroke-miterlimit:10;}
	.st5{fill:none;stroke:#FFFFFF;stroke-width:3;stroke-linecap:round;stroke-linejoin:round;stroke-miterlimit:10;}
	.st6{fill:none;stroke:#FFFFFF;stroke-width:2;stroke-linecap:round;stroke-linejoin:round;stroke-miterlimit:10;}
</style>
<g id="Camada_2" class="st0">
	<rect x="-1501.18" y="-1132.59" class="st1" width="369.41" height="310.66"/>
	<rect x="-1112.06" y="-1132.59" class="st1" width="369.41" height="310.66"/>
	<rect x="-722.84" y="-1132.59" class="st1" width="369.41" height="310.66"/>
	<rect x="-333.62" y="-1132.59" class="st1" width="369.41" height="310.66"/>
	<rect x="-1173.06" y="-862.23" class="st1" width="41.29" height="41.29"/>
</g>
<g id="Layer_1">
	<g>
		<g>
			<path class="st2" d="M402.1,65.33c0-22.3-19.15-40.37-42.78-40.37c-23.62,0-42.77,18.08-42.77,40.37
				c0,22.3,19.15,40.37,42.77,40.37C382.95,105.71,402.1,87.63,402.1,65.33z"/>
			<polygon class="st2" points="406.96,57.56 406.96,65.33 406.96,73.11 424.7,65.33 			"/>
			<polygon class="st2" points="311.69,65.33 311.69,57.56 293.95,65.33 311.69,73.11 			"/>
			<polygon class="st2" points="403.49,47.49 406.4,54.7 419.94,40.84 400.57,40.28 			"/>
			<polygon class="st2" points="315.16,83.18 312.25,75.97 298.71,89.82 318.07,90.39 			"/>
			<polygon class="st2" points="398.99,37.84 406.35,19.92 388.18,26.65 393.59,32.25 			"/>
			<polygon class="st2" points="319.66,92.83 312.3,110.75 330.46,104.02 325.06,98.42 			"/>
			<polygon class="st2" points="385.8,24.98 385.91,5.61 371.59,18.66 378.7,21.82 			"/>
			<polygon class="st2" points="332.85,105.69 332.73,125.06 347.05,112.01 339.95,108.85 			"/>
			<polygon class="st2" points="368.76,18 361.6,0 353.21,17.46 360.99,17.73 			"/>
			<polygon class="st2" points="365.43,113.21 357.66,112.94 349.89,112.67 357.04,130.67 			"/>
			<polygon class="st2" points="350.34,17.91 336.96,3.9 335.73,23.23 343.03,20.57 			"/>
			<polygon class="st2" points="381.68,126.76 382.92,107.43 375.61,110.09 368.31,112.75 			"/>
			<polygon class="st2" points="327.45,29.94 333.23,24.73 315.58,16.75 321.67,35.14 			"/>
			<polygon class="st2" points="396.98,95.53 391.2,100.73 385.42,105.94 403.07,113.92 			"/>
			<polygon class="st2" points="316.51,44.45 319.92,37.46 300.57,36.68 313.1,51.44 			"/>
			<polygon class="st2" points="405.54,79.22 402.13,86.21 398.73,93.2 418.08,93.99 			"/>
		</g>
		<path class="st3" d="M261.41,322.08c-3.99,0-7.96,0.05-11.88,0.16c-77.18,2.09-140.27,24.37-155.48,53.53h334.72
			c-12.76-24.46-59.2-44.08-119.38-51"/>
		<path class="st4" d="M363.5,210.4c-0.24-10.36-11.32-26.21-11.32-26.21c1.13,12.53-5.27,25.73-5.27,25.73
			c1.5-0.54,3.82-0.67,6.25-0.6c-2.82,9.8-7.94,17.39-7.94,17.39c1.6-0.26,3.94,0.05,6.4,0.6c-3.57,10.18-9.91,18.73-9.91,18.73
			c1.94,0.06,5.07,0.62,8.3,1.32c-3.15,9.96-9.22,18.5-9.22,18.5c1.55,0.02,3.9,0.36,6.44,0.82c-3.98,10.73-10.18,18.88-10.18,18.88
			c2.16-0.32,5.38,0.19,8.65,0.98c-4.64,10.51-11.3,18.16-11.3,18.16c1.75-0.07,4.18,0.53,6.73,1.4
			c-6.84,9.81-15.98,17.05-15.98,17.05c1.8,0.55,4.47,1.76,7.29,3.18c-6.57,9.43-15.36,16.39-15.36,16.39
			c5.62,1.71,19.94,10.14,19.94,10.14c2.56-5.72,2.69-15.12,2.21-22.94c3.77,2.07,6.7,3.8,6.7,3.8c2.76-6.17,2.81-16.43,2.25-24.73
			c3.38,1.56,5.92,2.94,5.92,2.94c1.6-6.44,0.49-15.61-1.05-23.25c2.82,0.94,4.8,1.71,4.8,1.71c1.12-6.32-0.6-14.87-2.68-22.05
			c2.84,0.65,4.92,1.18,4.92,1.18c0.78-5.7-1.65-14.13-4.08-20.75c3.38,0.84,5.94,1.54,5.94,1.54c0.91-5.74-1.24-14.19-3.55-21.06
			c2.54,0.84,4.37,1.56,4.37,1.56c0.73-6.06-1.51-14.46-3.78-21.04C361.58,210.06,363.5,210.4,363.5,210.4z"/>
		<path class="st4" d="M353.84,186.85c0,0-10.62-44.52-31.42-52.7c-20.81-8.18-54.28-8.2-54.28-8.2s7.56,23.02,12.31,25.17
			c4.75,2.15,21.24-1.83,21.24-1.83l-11.34,12.43l13.91,9.55c0,0,10.88-10.19,16.36-10.57l-5.05,15.68
			C315.58,176.38,337.31,179.72,353.84,186.85z"/>
		<path class="st4" d="M353.34,186.79c0,0,1.84-36.84,18.91-47.51c17.07-10.66,40.99-12.09,40.99-12.09l-15.38,24.08l-10.88-4.1
			l3.89,13.24l-7.81,12.75l-14.06-5.94l8.21,12.12C377.22,179.34,364.49,182.58,353.34,186.79z"/>
		<path class="st4" d="M280.13,242.06c0,0,7.46-39.1,17.44-46.72c9.98-7.62,55.9-8.72,55.9-8.72l-18.57,25.6l-15.93-4.63l7.58,14.86
			l-13.15,12.84c0,0-6.63-20.57-9.32-19.13c-2.7,1.44-4.43,25.16-4.43,25.16L280.13,242.06z"/>
		<path class="st4" d="M452.57,222.06c0,0-14.19-35.46-36.54-39.42c-22.35-3.96-62.99,3.73-62.99,3.73l32.39,19.81l12.04-11
			l-0.61,17.64l26.32,5.04l-1.78-16.55l11.97,17.96L452.57,222.06z"/>
		<path class="st4" d="M401.22,269.55c0,0,12.98-29.62,5.6-39.49c-7.38-9.87-53.43-43.24-53.43-43.24l22.41,37.79l9.58-2.21
			l-6.1,8.97l6.28,17.66l10.73-7.4l-6.08,12.56C390.2,254.18,394.81,262.94,401.22,269.55z"/>
		<path class="st4" d="M140.03,327.75c4.06-1.26,7.87-2.28,10.39-2.61c0,0-10.54-11.62-17.46-26.16c3.58-0.6,6.93-0.86,9.24-0.38
			c0,0-7.16-11.63-11-26.61c4.51-0.33,8.9-0.29,11.7,0.61c0,0-6.44-12.2-9.35-27.31c3.47-0.05,6.68,0.02,8.74,0.34
			c0,0-6.17-12.67-8.16-26.59c4.44-0.21,8.72-0.26,11.31,0.08c0,0-6.53-12.75-9.03-27.06c3.38-0.19,6.56-0.09,8.63,0.61
			c0,0-5.13-11.21-6.71-24.84c3.25,0.45,6.3,1.13,8.17,2.18c0,0-5.59-18.94-1.32-35.32c0,0-18.2,18.6-20.81,32.3
			c0,0,2.61-0.02,6.11,0.15c-4.47,8.23-9.3,18.89-9.66,27.1c0,0,2.59-0.55,6.14-1.11c-4.59,8.62-9.31,19.36-9.36,27.18
			c0,0,3.55-0.37,8.22-0.74c-4.69,8.25-9.78,18.91-9.99,26.65c0,0,2.87-0.24,6.78-0.48c-4.35,9.08-8.52,20.06-8.42,28.69
			c0,0,2.81-0.59,6.76-1.21c-3.72,9.81-7.22,21.74-6.52,30.65c0,0,3.69-1.27,8.52-2.6c-2.57,10.9-4.76,24.54-2.46,33.34
			c0,0,4.27-1.64,9.74-3.57c-2.36,10.27-4.26,22.79-2.12,30.95c0,0,20.87-8.03,28.72-9.06C156.8,352.9,146.67,341.72,140.03,327.75z
			"/>
		<path class="st4" d="M142.37,137.82c0,0,23.92-56.77,53.35-63.04c29.43-6.27,73.88,1.08,73.88,1.08s-15.12,28.9-21.9,30.7
			c-6.77,1.8-27.81-7.12-27.81-7.12l12.31,19.01l-20.58,9.62c0,0-12.2-15.93-19.39-17.65l3.24,21.94
			C195.49,132.37,165.9,132.01,142.37,137.82z"/>
		<path class="st4" d="M143.05,137.86c0,0,5.69-49.33-14.63-67.25c-20.31-17.92-51.77-25.1-51.77-25.1l15.11,35.37l15.35-3.05
			l-8.08,16.73l7.55,18.66l19.98-4.8l-13.58,14.28C112.98,122.7,129.18,129.81,143.05,137.86z"/>
		<path class="st4" d="M228.07,227.39c0,0-1.29-53.56-12.86-65.88c-11.57-12.32-72.31-23.91-72.31-23.91l19.01,38.08l22.17-2.63
			l-13.34,18.06l14.63,19.95c0,0,13.34-25.85,16.6-23.34c3.26,2.51,0.33,34.39,0.33,34.39L228.07,227.39z"/>
		<path class="st4" d="M3.51,162.81c0,0,26.67-43.96,57.22-44.28c30.55-0.32,82.82,18.85,82.82,18.85l-47.37,19.17l-13.56-17.26
			l-3.08,23.56l-36.05,0.88l6.01-21.58l-19.86,21.21L3.51,162.81z"/>
		<path class="st4" d="M61.22,237.19c0,0-10.71-42.2,1.27-53.68c11.98-11.48,80.49-45.63,80.49-45.63l-38.09,45.24l-12.23-5.04
			l6.12,13.25L86.55,213.4l-12.61-12.2l5.31,18.01C79.24,219.21,71.18,229.83,61.22,237.19z"/>
		<g>
			<path class="st2" d="M239.86,332.21h-3.29v-55.29c0-0.52,0.73-0.94,1.63-0.94h0.03c0.9,0,1.63,0.42,1.63,0.94V332.21z"/>
			<path class="st5" d="M275.96,272.74c0.25-0.14,0.5-0.28,0.74-0.43c0,0,0.01,0,0.01-0.01c0.25-0.15,0.5-0.31,0.75-0.47
				c0.06-0.04,0.13-0.08,0.19-0.12c0.21-0.13,0.41-0.27,0.61-0.41c0.04-0.03,0.09-0.06,0.13-0.09c0.24-0.16,0.47-0.33,0.7-0.49
				c0.05-0.04,0.1-0.08,0.16-0.11c0.19-0.14,0.37-0.27,0.55-0.4c0.05-0.04,0.1-0.08,0.15-0.11c0.22-0.16,0.43-0.32,0.63-0.48
				c0.03-0.03,0.07-0.05,0.1-0.08c0.17-0.14,0.34-0.27,0.5-0.4c0.05-0.04,0.11-0.08,0.16-0.13c0.18-0.14,0.35-0.28,0.52-0.42
				c0.01-0.01,0.02-0.01,0.03-0.02c0.17-0.14,0.33-0.28,0.49-0.41c0.04-0.04,0.08-0.07,0.12-0.11c0.13-0.11,0.24-0.21,0.36-0.31
				c0.03-0.02,0.05-0.05,0.08-0.07c0.13-0.11,0.25-0.22,0.36-0.32c0.03-0.02,0.05-0.05,0.08-0.07c0.09-0.08,0.17-0.15,0.24-0.22
				c0.02-0.02,0.04-0.04,0.06-0.05c0.08-0.07,0.15-0.14,0.21-0.19c0.02-0.01,0.02-0.02,0.04-0.04c0.05-0.04,0.08-0.08,0.11-0.1
				c0.01-0.01,0.01-0.01,0.02-0.02c0.02-0.02,0.04-0.04,0.04-0.04c0.06,0.06,0.07-6.38-6.84-10.03
				c-16.09-8.49-39.04-19.4-39.04-19.4s-22.95,10.91-39.04,19.4c-6.91,3.65-6.91,10.09-6.84,10.03c0,0,0.01,0.01,0.03,0.03
				c0.01,0.01,0.01,0.01,0.03,0.02c0.02,0.02,0.05,0.04,0.08,0.08c0.02,0.02,0.03,0.03,0.05,0.05c0.04,0.04,0.09,0.09,0.15,0.14
				c0.01,0.01,0.02,0.02,0.04,0.04c0.07,0.07,0.16,0.14,0.25,0.22c0.03,0.03,0.06,0.05,0.09,0.08c0.07,0.06,0.14,0.12,0.21,0.19
				c0.04,0.04,0.09,0.08,0.13,0.12c0.08,0.07,0.17,0.15,0.26,0.22c0.04,0.03,0.08,0.07,0.12,0.1c0.13,0.11,0.27,0.23,0.41,0.35
				c0.04,0.04,0.09,0.07,0.13,0.11c0.11,0.09,0.22,0.19,0.34,0.29c0.06,0.05,0.11,0.09,0.17,0.14c0.12,0.1,0.25,0.2,0.37,0.3
				c0.05,0.04,0.1,0.08,0.16,0.13c0.18,0.14,0.36,0.29,0.55,0.43c0.04,0.03,0.07,0.06,0.11,0.08c0.16,0.12,0.32,0.24,0.48,0.37
				c0.07,0.05,0.13,0.1,0.2,0.15c0.15,0.11,0.3,0.22,0.46,0.34c0.06,0.04,0.12,0.09,0.18,0.13c0.22,0.15,0.43,0.31,0.66,0.46
				c0.01,0.01,0.03,0.02,0.04,0.03c0.21,0.14,0.42,0.28,0.63,0.42c0.06,0.04,0.12,0.08,0.18,0.12c0.18,0.12,0.36,0.23,0.54,0.34
				c0.06,0.04,0.12,0.07,0.18,0.11c2.4,1.47,4.98,2.61,7.09,2.47c1.92-0.13,3.56-1.69,5.19-3.58c0.78,1.32,3.18,4.89,6.14,4.89
				c1.15,0,3.61,0,6.42,0c6.06,0,13.8,0,13.8,0s7.73,0,13.8,0c2.81,0,5.26,0,6.42,0c2.96,0,5.36-3.57,6.14-4.88
				c1.63,1.9,3.27,3.45,5.19,3.58c1.57,0.11,3.41-0.5,5.23-1.43c0,0,0,0,0,0c0.03-0.01,0.06-0.03,0.09-0.05
				c0.22-0.11,0.45-0.23,0.67-0.36C275.83,272.81,275.89,272.77,275.96,272.74z"/>
			<line class="st6" x1="160.26" y1="339.83" x2="166.96" y2="323.29"/>
			<line class="st6" x1="180.51" y1="325.21" x2="177.06" y2="333.58"/>
			<path class="st6" d="M194.96,325.21l-6.81-14.59c0,0-25.66,0.44-26.1,0"/>
			<polyline class="st6" points="230.2,333.58 223.54,317.92 184.4,317.92 170.73,285.09 154.46,291.04 167.7,325.21 207.12,325.21 
				213.33,339.83 			"/>
			<polyline class="st6" points="210.52,317.92 204.92,303.4 178.19,303.01 			"/>
			<line class="st6" x1="184.4" y1="317.92" x2="166.96" y2="325.21"/>
			<line class="st6" x1="207.12" y1="325.21" x2="223.54" y2="317.92"/>
			<line class="st6" x1="314.65" y1="339.83" x2="307.95" y2="323.29"/>
			<line class="st6" x1="294.4" y1="325.21" x2="297.85" y2="333.58"/>
			<path class="st6" d="M279.95,325.21l6.81-14.59c0,0,25.66,0.44,26.1,0"/>
			<polyline class="st6" points="244.71,333.58 251.37,317.92 290.51,317.92 304.18,285.09 320.45,291.04 307.21,325.21 
				267.79,325.21 261.58,339.83 			"/>
			<polyline class="st6" points="264.39,317.92 269.99,303.4 296.72,303.01 			"/>
			<line class="st6" x1="290.51" y1="317.92" x2="307.95" y2="325.21"/>
			<line class="st6" x1="267.79" y1="325.21" x2="251.37" y2="317.92"/>
		</g>
	</g>
</g>
</svg>
