<?xml version="1.0" encoding="utf-8"?>
<!-- Generator: Adobe Illustrator 23.0.3, SVG Export Plug-In . SVG Version: 6.00 Build 0)  -->
<svg version="1.1" xmlns="http://www.w3.org/2000/svg" xmlns:xlink="http://www.w3.org/1999/xlink" x="0px" y="0px"
	 viewBox="0 0 455.72 334.08" style="enable-background:new 0 0 455.72 334.08;" xml:space="preserve">
<style type="text/css">
	.st0{display:none;}
	.st1{display:inline;}
	.st2{fill:none;stroke:#FFFFFF;stroke-width:2;stroke-miterlimit:10;}
	.st3{fill:none;stroke:#FFFFFF;stroke-width:4;stroke-miterlimit:10;}
	.st4{fill:none;stroke:#FFFFFF;stroke-width:2;stroke-linecap:round;stroke-linejoin:round;stroke-miterlimit:10;}
	.st5{fill:#FFFFFF;}
	.st6{fill:none;}
</style>
<g id="Camada_2" class="st0">
	<rect x="-994.97" y="-1175.27" class="st1" width="369.41" height="310.66"/>
	<rect x="-605.85" y="-1175.27" class="st1" width="369.41" height="310.66"/>
	<rect x="-216.63" y="-1175.27" class="st1" width="369.41" height="310.66"/>
	<rect x="172.59" y="-1175.27" class="st1" width="369.41" height="310.66"/>
	<rect x="-666.86" y="-904.91" class="st1" width="41.29" height="41.29"/>
</g>
<g id="Layer_1">
	<g>
		<path class="st2" d="M169.09,289.81c-8.3,2.07-16.12,4.42-23.38,7.01"/>
		<path class="st2" d="M244.83,279.67c-11.56,0.41-22.79,1.28-33.57,2.55"/>
		<path class="st2" d="M286.87,280.19c-5.6-0.34-11.29-0.58-17.06-0.7"/>
		<path class="st2" d="M329.9,285.19c-6.24-1.1-12.69-2.05-19.3-2.85"/>
		<path class="st2" d="M126.46,304.92c-16.27,8.08-27.92,17.68-33.38,28.16H427.8c-10.57-20.27-44.27-37.21-89.76-46.36"/>
		<path class="st3" d="M363.5,167.71c-0.24-10.36-11.32-26.21-11.32-26.21c1.13,12.53-5.27,25.73-5.27,25.73
			c1.5-0.54,3.82-0.67,6.25-0.6c-2.82,9.8-7.94,17.39-7.94,17.39c1.6-0.26,3.94,0.05,6.4,0.6c-3.57,10.18-9.91,18.73-9.91,18.73
			c1.94,0.06,5.07,0.62,8.3,1.32c-3.15,9.96-9.22,18.5-9.22,18.5c1.55,0.02,3.9,0.36,6.44,0.82c-3.98,10.73-10.18,18.88-10.18,18.88
			c2.16-0.32,5.38,0.19,8.65,0.98c-4.64,10.51-11.3,18.16-11.3,18.16c1.75-0.07,4.18,0.53,6.73,1.4
			c-6.84,9.81-15.98,17.05-15.98,17.05c1.8,0.55,4.47,1.76,7.29,3.18c-6.57,9.43-15.36,16.39-15.36,16.39
			c5.62,1.71,19.94,10.14,19.94,10.14c2.56-5.72,2.69-15.12,2.21-22.94c3.77,2.07,6.7,3.8,6.7,3.8c2.76-6.17,2.81-16.43,2.25-24.73
			c3.38,1.56,5.92,2.94,5.92,2.94c1.6-6.44,0.49-15.61-1.05-23.25c2.82,0.94,4.8,1.71,4.8,1.71c1.12-6.32-0.6-14.87-2.68-22.05
			c2.84,0.65,4.92,1.18,4.92,1.18c0.78-5.7-1.65-14.13-4.08-20.75c3.38,0.84,5.94,1.54,5.94,1.54c0.91-5.74-1.24-14.19-3.55-21.06
			c2.54,0.84,4.37,1.56,4.37,1.56c0.73-6.06-1.51-14.46-3.78-21.04C361.58,167.38,363.5,167.71,363.5,167.71z"/>
		<path class="st3" d="M353.84,144.16c0,0-10.62-44.52-31.42-52.7c-20.81-8.18-54.28-8.2-54.28-8.2s7.56,23.02,12.31,25.17
			c4.75,2.15,21.24-1.83,21.24-1.83l-11.34,12.43l13.91,9.55c0,0,10.88-10.19,16.36-10.57l-5.05,15.68
			C315.58,133.7,337.31,137.03,353.84,144.16z"/>
		<path class="st3" d="M353.34,144.11c0,0,1.84-36.84,18.91-47.51c17.07-10.66,40.99-12.09,40.99-12.09l-15.38,24.08l-10.88-4.1
			l3.89,13.24l-7.81,12.75l-14.06-5.94l8.21,12.12C377.22,136.66,364.49,139.9,353.34,144.11z"/>
		<path class="st3" d="M280.13,199.37c0,0,7.46-39.1,17.44-46.72c9.98-7.62,55.9-8.72,55.9-8.72l-18.57,25.6l-15.93-4.63l7.58,14.86
			l-13.15,12.84c0,0-6.63-20.57-9.32-19.13c-2.7,1.44-4.43,25.16-4.43,25.16L280.13,199.37z"/>
		<path class="st3" d="M452.57,179.38c0,0-14.19-35.46-36.54-39.42c-22.35-3.96-62.99,3.73-62.99,3.73l32.39,19.81l12.04-11
			l-0.61,17.64l26.32,5.04l-1.78-16.55l11.97,17.96L452.57,179.38z"/>
		<path class="st3" d="M401.22,226.86c0,0,12.98-29.62,5.6-39.49c-7.38-9.87-53.43-43.24-53.43-43.24l22.41,37.79l9.58-2.21
			l-6.1,8.97l6.28,17.66l10.73-7.4l-6.08,12.56C390.2,211.5,394.81,220.26,401.22,226.86z"/>
		<path class="st3" d="M140.03,285.06c4.06-1.26,7.87-2.28,10.38-2.61c0,0-10.54-11.62-17.46-26.16c3.58-0.6,6.93-0.86,9.24-0.38
			c0,0-7.16-11.63-11-26.61c4.51-0.33,8.9-0.29,11.7,0.61c0,0-6.44-12.2-9.35-27.31c3.47-0.05,6.68,0.02,8.74,0.34
			c0,0-6.17-12.67-8.16-26.59c4.44-0.21,8.72-0.26,11.31,0.08c0,0-6.53-12.75-9.03-27.06c3.38-0.19,6.56-0.09,8.63,0.61
			c0,0-5.13-11.21-6.71-24.84c3.25,0.45,6.3,1.13,8.17,2.18c0,0-5.59-18.94-1.32-35.32c0,0-18.2,18.6-20.81,32.3
			c0,0,2.61-0.02,6.11,0.15c-4.47,8.23-9.3,18.89-9.66,27.1c0,0,2.59-0.55,6.14-1.11c-4.59,8.62-9.31,19.36-9.36,27.18
			c0,0,3.55-0.37,8.22-0.74c-4.69,8.25-9.78,18.91-9.99,26.65c0,0,2.87-0.24,6.78-0.48c-4.35,9.08-8.52,20.06-8.42,28.69
			c0,0,2.81-0.59,6.76-1.21c-3.72,9.81-7.22,21.74-6.52,30.65c0,0,3.69-1.27,8.52-2.6c-2.57,10.9-4.76,24.54-2.46,33.34
			c0,0,4.27-1.64,9.73-3.57c-2.36,10.27-4.26,22.79-2.12,30.95c0,0,20.87-8.03,28.72-9.06C156.8,310.22,146.67,299.03,140.03,285.06
			z"/>
		<path class="st3" d="M142.37,95.14c0,0,23.92-56.77,53.35-63.04c29.43-6.27,73.88,1.08,73.88,1.08s-15.12,28.9-21.9,30.7
			c-6.77,1.8-27.81-7.12-27.81-7.12l12.31,19.01l-20.58,9.62c0,0-12.2-15.93-19.39-17.65l3.24,21.94
			C195.49,89.69,165.9,89.32,142.37,95.14z"/>
		<path class="st3" d="M143.05,95.18c0,0,5.69-49.33-14.63-67.25c-20.31-17.92-51.77-25.1-51.77-25.1L91.76,38.2l15.35-3.05
			l-8.08,16.73l7.55,18.66l19.98-4.8l-13.58,14.28C112.98,80.02,129.18,87.13,143.05,95.18z"/>
		<path class="st3" d="M228.07,184.71c0,0-1.29-53.56-12.86-65.88c-11.57-12.32-72.31-23.91-72.31-23.91L161.91,133l22.17-2.63
			l-13.34,18.06l14.63,19.95c0,0,13.34-25.85,16.6-23.34c3.26,2.51,0.33,34.39,0.33,34.39L228.07,184.71z"/>
		<path class="st3" d="M3.51,120.13c0,0,26.67-43.96,57.22-44.28c30.55-0.32,82.82,18.85,82.82,18.85l-47.37,19.17L82.62,96.59
			l-3.08,23.56l-36.05,0.88l6.01-21.58l-19.86,21.21L3.51,120.13z"/>
		<path class="st3" d="M61.22,194.51c0,0-10.71-42.2,1.27-53.68c11.98-11.48,80.49-45.63,80.49-45.63l-38.09,45.24l-12.23-5.04
			l6.12,13.25l-12.23,22.06l-12.61-12.2l5.31,18.01C79.24,176.53,71.18,187.15,61.22,194.51z"/>
		<path class="st4" d="M258.81,266.47c0,0-16.41-4.37-13.83,21.47c2.23,22.24-1.9,20.71-0.68,30.52s16.23,11.36,17.17-4.82
			c0.94-16.18,1.41-20.08,6.05-27.46C272.17,278.8,269.95,267.93,258.81,266.47z M262.54,292.58c-0.57,2.47-2.64,1.83-2.77,0
			c-0.23-3.16,0.77-8.92-3.63-9.72c-2.94-0.53-5.48,3.8-6.4,7.75c-0.59,2.55-2.85,2.36-2.91,0.3c-0.19-7.16,5.15-10.3,7.76-12.94
			c1.16-1.17,1.41-3,1.73-5.64c0.14-1.18,0.97-2.7,2.44-2.49c0.02,0,0.04,0.01,0.06,0.01c1.44,0.2,1.74,2.05,1.42,3.16
			c-0.92,3.19-0.27,5.21-0.27,5.21C263.51,286.3,263.21,289.64,262.54,292.58z"/>
		<path class="st4" d="M304.12,265.26c-10.4-4.23-17.7,4.12-17.31,12.84c0.39,8.71-1.12,12.33-8.3,26.87
			c-7.17,14.54,6.64,20.6,12.55,12.67c5.91-7.93,1.56-8.64,14.48-26.88C320.55,269.57,304.12,265.26,304.12,265.26z M302.48,292.42
			c-1.07,1.77-3.12,0.82-2.38-1.69c1.15-3.89,1.08-8.91-1.74-9.9c-4.22-1.48-6.19,4.03-7.96,6.66c-1.02,1.52-3.14,1.06-2.41-1.37
			c0.86-2.89,2.26-5.93,9.32-11.23c0,0,1.56-1.44,2.34-4.66c0.27-1.12,1.44-2.58,2.79-2.05c0.02,0.01,0.04,0.01,0.06,0.02
			c1.38,0.54,1.35,2.27,0.89,3.37c-1.02,2.45-1.71,4.16-1.28,5.76C303.09,280.92,306.19,286.28,302.48,292.42z"/>
		<path class="st5" d="M351.72,188.19c-0.02-0.17-0.06-0.34-0.14-0.53c-0.97,0.63,0.17,0.01-0.09-0.65
			c0.02-0.04,0.06,0.05,0.07,0.05c0,0-0.37-0.46-0.46-0.48c-0.23-0.07-0.43,0.07-0.63,0.14c-0.59,0.19-1.17,0.5-1.73,0.76
			c-1.22,0.57-2.4,1.2-3.57,1.88c-2.34,1.36-4.59,2.87-6.86,4.34c-4.08,2.65-8.05,5.46-11.93,8.39c-2.2,1.66-4.39,3.34-6.55,5.05
			c0-0.08-0.01-0.16-0.01-0.25c-0.18-0.02-0.34-0.12-0.42-0.32c-0.2-0.54-1.48-0.15-1.48,0.4c0,0.13-0.06,0.25-0.15,0.35
			c0.01,0.04,0.01,0.08,0.02,0.12c-22.89,5.73-46.25,6.78-69.19,5.35c-10.79-0.67-21.44-2.29-32.17-3.5
			c-3.05-0.34-6.1-0.69-9.14-1.1c-2.57-0.54-5.13-1.07-7.66-1.85c-4.17-1.28-8.22-2.98-12.27-4.67c-3.92-1.63-7.77-3.42-11.38-5.84
			c-1.07-0.72-2.13-1.49-3.19-2.26c-0.25-0.13-0.49-0.32-0.69-0.54c-0.14-0.09-0.27-0.19-0.4-0.3c0,0.01-0.01,0.02-0.01,0.03
			c-2-1.47-4.01-2.91-6.13-4.1c-0.34-0.19-0.66-0.74-0.94-1.02c-0.34-0.34-0.69-0.67-1.05-0.98c-0.7-0.62-1.45-1.2-2.22-1.74
			c-1.27-0.9-3.26-1.97-4.63-2.73c-0.28-0.16,0.13-0.78-0.23-1.03c-1.14-0.8-1.03,0.32-1.55,0.04c-0.26-0.14-0.52-0.29-0.78-0.45
			c-0.8-0.5-1.4-1.19-2.12-1.8c-0.68-0.58-1.36-1.17-2.04-1.76c-1.31-1.14-2.61-2.28-3.95-3.38c-0.8-0.66-1.62-1.31-2.45-1.93
			c0.04-0.14-0.75-0.48-1.35,0.21c-0.63,1.4-0.14,1.84,0,2.25c2.95,3.13,6.6,5.23,10.21,7.18c0.62,0.34,1.28,0.61,1.87,0.99
			c0.55,0.35,0.14,0.97,0.1,1.47c-0.06,0.89,1.66-0.03,1.79,0.07c0.59,0.49,1.19,0.99,1.79,1.47c1.46,1.18,2.95,2.31,4.54,3.32
			c0.86,0.55,1.75,1.05,2.67,1.5c0.39,0.48,0.76,0.97,1.11,1.51c-0.01,0.12,0,0.25,0.04,0.36c4.01,10.93,11.12,19.38,18.94,26.18
			c8.29,7.2,17.67,12.61,27.51,16.18c20.32,7.38,42.09,6.31,63.17,0.5c14.77-4.07,33.43-7.52,42.39-24.91
			c0.01,0.05,0.03,0.11,0.04,0.16c-0.02,0.35,1.19-0.21,1.4-0.44c0.27-0.29,0.65-0.88,0.08-1.19c0-0.01,0-0.02,0-0.04
			c6-2.92,11.67-6.83,17.43-10.43c1.69-1.05,3.4-2.04,5.09-3.04c0,0.02-0.01,0.04-0.02,0.06c0.15-0.1,0.29-0.2,0.44-0.3
			c0.92-0.68,1.86-1.35,2.94-1.76c1.32-0.51,2.66-1.69,3.8-2.51C350.55,189.97,351.85,189.37,351.72,188.19z M143.81,173.72
			c2.23,1.68,4.4,3.46,6.57,5.26C147.98,177.57,145.72,175.92,143.81,173.72z M234.92,214.02c0.28,0.91,0.6,1.79,0.96,2.65
			c-1.8,2.72-3.76,5.22-5.78,7.7c-0.93-1.98-1.9-3.89-2.9-5.76c1.32-1.83,2.64-3.66,4.1-5.36
			C232.51,213.52,233.71,213.78,234.92,214.02z M258.58,216.59c2.3,0.02,4.61,0,6.92-0.05c0,0,0,0.01,0,0.01
			c0.54,0.97,1.34,1.74,2,2.67c-0.32,0.71-0.63,1.43-0.95,2.14c-0.84,1.89-1.85,3.65-2.8,5.46c0,0,0,0,0,0.01
			c-0.16-0.25-0.32-0.51-0.49-0.77c-1.14-1.8-2.3-3.59-3.48-5.36c-0.57-0.85-1.21-1.67-1.81-2.52c0.18-0.4,0.36-0.8,0.53-1.19
			C258.57,216.85,258.59,216.71,258.58,216.59z M269.85,216.43c1.32-0.04,2.64-0.08,3.95-0.11c0.23-0.01,0.45-0.02,0.68-0.02
			c0.61,1.36,1.46,2.58,2.36,3.73c-0.47,1.09-0.88,2.17-1.29,3.04c-0.57,1.2-1.12,2.43-1.69,3.65c-1.08-1.47-2.19-2.92-3.29-4.38
			c-0.44-0.58-1.08-1.96-1.84-3.25c0.33-0.73,0.68-1.45,1.06-2.15C269.9,216.76,269.9,216.58,269.85,216.43z M288.56,215.49
			c0.35-0.03,0.7-0.06,1.05-0.09c1.26,2.01,2.78,3.8,4.13,5.71c0.16,0.22,0.32,0.44,0.48,0.66c-0.12,0.25-0.25,0.5-0.37,0.74
			c-0.82,1.7-1.62,3.46-2.6,5.05c-1.91-1.91-3.55-4.23-5.08-6.65c0.8-1.62,1.58-3.25,2.33-4.88
			C288.59,215.83,288.61,215.64,288.56,215.49z M290.55,215.32c2.32-0.21,4.64-0.47,6.96-0.75c0.08,0.26,0.18,0.51,0.29,0.75
			c-0.99,1.69-1.98,3.38-2.9,5.12C293.56,218.55,292.18,216.71,290.55,215.32z M285.49,219.82c-0.81-1.31-1.6-2.63-2.4-3.92
			c1.48-0.09,2.97-0.2,4.45-0.32C286.88,217.01,286.19,218.42,285.49,219.82z M284.93,220.91c-0.81,1.58-1.64,3.14-2.49,4.68
			c-0.62-0.92-1.24-1.85-1.9-2.72c-0.79-1.03-1.59-2.08-2.42-3.11c0.69-1.34,1.47-2.54,2.4-3.31c0.15-0.12,0.23-0.27,0.27-0.43
			c0.54-0.03,1.07-0.05,1.6-0.08C283.17,217.62,284.01,219.3,284.93,220.91z M277.38,218.85c-0.72-0.88-1.45-1.75-2.19-2.57
			c1.31-0.04,2.63-0.1,3.94-0.16C278.45,216.83,277.88,217.8,277.38,218.85z M268.07,218.04c-0.48-0.69-1-1.26-1.52-1.52
			c0.81-0.02,1.61-0.04,2.42-0.06C268.64,216.97,268.35,217.5,268.07,218.04z M258.27,220.15c1.31,2.01,2.6,4.04,3.88,6.08
			c0.35,0.55,0.69,1.11,1.04,1.67c-1.3,2.43-2.65,4.76-4.18,6.96c-1.7-2.78-3.59-5.41-5.29-8.17c1.44-2.49,2.72-5.1,3.85-7.59
			C257.8,219.45,258.04,219.79,258.27,220.15z M257.32,217.17c-0.12-0.2-0.23-0.4-0.34-0.6c0.2,0,0.4,0,0.6,0.01
			C257.5,216.77,257.41,216.97,257.32,217.17z M256.94,218.01c-1.15,2.51-2.44,5.11-3.88,7.61c-1.54-2.48-3.21-4.93-4.95-7.24
			c0.43-0.64,0.86-1.26,1.32-1.84c0.09-0.12,0.15-0.25,0.17-0.37c2.29,0.2,4.58,0.32,6.89,0.38
			C256.56,217.09,256.72,217.57,256.94,218.01z M252.43,226.68c-1.74,2.87-3.68,5.56-5.87,7.76c-1.45-2.5-2.68-5.22-4.04-7.76
			c0.64-0.82,1.28-1.66,1.89-2.53c1.04-1.48,2-3.12,3-4.7c1.48,2.2,3.13,4.26,4.55,6.46C252.12,226.17,252.28,226.43,252.43,226.68z
			 M247.37,217.42c-0.42-0.55-0.84-1.09-1.27-1.62c0.74,0.09,1.48,0.17,2.22,0.25C247.99,216.48,247.67,216.94,247.37,217.42z
			 M246.74,218.43c-0.53,0.87-1.06,1.76-1.61,2.58c-1.05,1.55-2.12,3.06-3.23,4.52c-1.58-2.9-3.16-5.82-4.76-8.7
			c0.41-0.64,0.81-1.3,1.2-1.97c0.04-0.07,0.06-0.13,0.08-0.19c2.26,0.4,4.54,0.74,6.81,1.03
			C245.68,216.65,246.19,217.55,246.74,218.43z M241.13,226.51c-0.34,0.44-0.69,0.87-1.04,1.3c-1.55,1.88-3.2,3.64-4.86,5.36
			c-0.08,0.08-0.17,0.18-0.26,0.28c-1.53-2.55-2.97-5.18-4.29-7.9c2.01-2.46,3.96-4.96,5.75-7.65
			C237.82,220.91,239.58,223.7,241.13,226.51z M236.51,215.71c-0.29-0.52-0.58-1.04-0.87-1.55c0.54,0.11,1.09,0.21,1.64,0.31
			C237.03,214.89,236.77,215.3,236.51,215.71z M229.33,225.33c-0.29,0.36-0.58,0.71-0.88,1.07c-1.57,1.91-3.16,4.06-4.88,5.94
			c-0.21-0.48-0.41-0.96-0.61-1.38c-0.71-1.46-1.38-2.96-2.04-4.46c2.12-2.14,3.92-4.59,5.7-7.07c0.92,1.85,1.74,3.78,2.6,5.67
			C229.25,225.18,229.29,225.25,229.33,225.33z M224.24,211.44c0.05,0.05,0.1,0.1,0.18,0.12c1.87,0.51,3.75,0.98,5.65,1.41
			c-1.21,1.46-2.33,3.01-3.44,4.57c-1.13-2.09-2.28-4.14-3.46-6.23C223.53,211.35,223.89,211.39,224.24,211.44z M225.74,217.73
			c0.11,0.2,0.21,0.42,0.32,0.62c-1.38,1.94-2.77,3.87-4.34,5.6c-0.43,0.48-0.86,0.95-1.31,1.41c-0.31-0.69-0.61-1.39-0.91-2.08
			c-0.76-1.74-1.55-3.46-2.35-5.17c0.93-1.1,1.89-2.16,2.89-3.16c0.93-0.92,2.01-1.94,2.51-3.29
			C223.4,213.85,224.65,215.74,225.74,217.73z M219.67,226.12c-1.07,1.09-2.17,2.13-3.28,3.15c-0.68,0.62-1.37,1.3-2.1,1.93
			c-1.08-1.9-2-3.93-2.84-6.02c1.31-1.61,2.59-3.26,3.89-4.88c0.37-0.46,0.74-0.92,1.12-1.38c0.87,1.91,1.73,3.81,2.57,5.74
			C219.25,225.15,219.46,225.63,219.67,226.12z M220.5,210.99c0.48,0.06,0.96,0.11,1.45,0.17c-0.74,1.39-1.9,2.38-2.95,3.4
			c-0.8,0.79-1.57,1.64-2.32,2.52c-0.12-0.27-0.25-0.54-0.38-0.82c-0.93-2.02-1.78-4.24-2.94-6.1
			C215.75,210.44,218.13,210.71,220.5,210.99z M212.48,210.07c0.12,0.01,0.24,0.03,0.36,0.04c0.57,2.39,1.71,4.6,2.68,6.74
			c0.16,0.35,0.31,0.7,0.47,1.05c-0.44,0.53-0.88,1.06-1.31,1.58c-1.24,1.5-2.44,3.06-3.67,4.59c-0.59-1.5-1.14-3.02-1.69-4.52
			c-0.45-1.23-0.94-2.59-1.48-3.96c1.43-1.83,2.89-3.64,4.49-5.25C212.42,210.26,212.46,210.16,212.48,210.07z M210.27,209.81
			c0.34,0.04,0.67,0.08,1.01,0.12c-1.44,1.2-2.72,2.79-3.94,4.43c-0.85-1.98-1.84-3.87-3.09-5.27
			C206.24,209.54,208.26,209.83,210.27,209.81z M206.63,215.31c-0.63,0.86-1.26,1.72-1.89,2.51c-0.94,1.19-2.02,2.64-3.19,3.94
			c-0.43-1.27-0.82-2.53-1.22-3.69c-0.48-1.4-0.99-2.75-1.53-4.08c1.56-1.58,3.1-3.2,4.75-4.64
			C204.76,211.11,205.75,213.17,206.63,215.31z M202.6,208.76c-1.46,1.32-2.84,2.76-4.23,4.19c-0.77-1.83-1.57-3.61-2.38-5.43
			C198.18,208,200.38,208.41,202.6,208.76z M195.24,207.36c0.67,2.17,1.53,4.25,2.39,6.34c-0.24,0.24-0.48,0.48-0.72,0.73
			c-1.25,1.25-2.51,2.31-3.83,3.22c-0.36-0.88-0.72-1.76-1.08-2.65c-0.77-1.93-1.49-3.93-2.27-5.88c1.03-0.8,2.08-1.59,3.14-2.33
			C193.67,206.99,194.45,207.18,195.24,207.36z M189.25,207.93c-0.36-0.85-0.73-1.7-1.12-2.51c1.04,0.34,2.08,0.65,3.12,0.94
			C190.57,206.8,189.9,207.36,189.25,207.93z M180.67,204.05c0.7-0.34,1.4-0.44,2.1-0.67c1.51,0.66,3.05,1.25,4.6,1.78
			c0.35,1.16,0.74,2.3,1.15,3.43c-0.3,0.26-0.59,0.52-0.87,0.75c-1.47,1.22-2.88,2.16-4.42,2.9c-0.97-2.03-1.85-4.17-2.84-6.07
			c-0.27-0.53-0.56-1.05-0.84-1.57C179.91,204.42,180.29,204.23,180.67,204.05z M179.43,203.41c-0.14,0.07-0.28,0.15-0.42,0.23
			c-0.4-0.74-0.8-1.47-1.19-2.21c-0.07-0.13-0.14-0.27-0.21-0.4c0.46,0.23,0.91,0.45,1.37,0.66c0.65,0.31,1.32,0.6,1.98,0.88
			C180.39,202.84,179.84,203.18,179.43,203.41z M167.69,191.46c1.16,0.99,2.35,1.94,3.56,2.83c0,0,0,0.01,0,0.01
			c0.22,0.13,0.42,0.29,0.61,0.46c0-0.01,0-0.01,0.01-0.02c4.57,3.28,9.49,5.9,14.48,8.01c0.68,0.29,1.36,0.57,2.04,0.85
			c-2.78-0.84-5.52-1.85-8.19-3.06c-2.97-1.34-5.99-2.97-8.66-5.15c0.01-0.02,0.01-0.03,0.02-0.04c-0.06-0.04-0.13-0.08-0.19-0.12
			c-0.11-0.07-0.22-0.15-0.32-0.25c0,0,0,0,0,0.01C169.82,193.95,168.7,192.77,167.69,191.46z M174.85,204.91
			c-2.1-2.9-3.98-6.04-5.55-9.41c2.13,1.99,4.55,3.54,7.02,4.86c0.58,0.94,1,2.04,1.48,3.05c0.11,0.24,0.23,0.47,0.35,0.7
			C177.07,204.67,175.93,205.15,174.85,204.91z M181.69,212.89c-2.14-2.14-4.18-4.43-6.05-6.92c0.7,0.06,1.5-0.28,2.17-0.55
			c0.28-0.12,0.55-0.24,0.82-0.37c0.69,1.33,1.41,2.63,2.08,3.96c0.59,1.17,1.13,2.39,1.69,3.59
			C182.17,212.71,181.93,212.81,181.69,212.89z M182.38,213.57c0.15-0.01,0.3-0.03,0.45-0.06c0.15,0.32,0.31,0.64,0.47,0.96
			C182.99,214.18,182.69,213.87,182.38,213.57z M185.95,216.85c-0.85-1.06-1.57-2.29-2.23-3.59c1.04-0.42,2.07-1.18,2.91-1.78
			c0.78-0.56,1.54-1.14,2.3-1.73c0.64,1.7,1.32,3.39,1.96,5.07c0.44,1.13,0.88,2.27,1.34,3.4c-0.9,0.56-1.83,1.05-2.82,1.48
			C188.25,218.77,187.09,217.83,185.95,216.85z M190.23,220.33c0.82-0.2,1.64-0.59,2.43-1.07c0.56,1.38,1.14,2.74,1.74,4.09
			C192.99,222.39,191.6,221.38,190.23,220.33z M195.98,224.41c-0.84-1.89-1.66-3.8-2.46-5.72c0.89-0.64,1.74-1.36,2.52-2.05
			c0.69-0.61,1.36-1.24,2.01-1.9c0.52,1.3,1.03,2.6,1.46,3.94c0.4,1.24,0.82,2.56,1.26,3.9c-1.19,1.19-2.48,2.13-3.84,2.43
			C196.62,224.81,196.3,224.61,195.98,224.41z M197.76,225.53c1.16-0.21,2.3-1.03,3.34-2.01c0.63,1.8,1.34,3.59,2.2,5.15
			C201.42,227.7,199.58,226.65,197.76,225.53z M205.14,229.59c-1.37-1.86-2.38-4.34-3.25-6.85c0.62-0.65,1.2-1.32,1.71-1.9
			c1.22-1.38,2.38-2.85,3.52-4.32c0.68,1.74,1.29,3.5,1.89,5.16c0.4,1.11,0.81,2.23,1.24,3.34c-1.42,1.73-2.89,3.39-4.5,4.86
			C205.54,229.78,205.34,229.69,205.14,229.59z M212.3,232.62c-1.12-0.42-2.25-0.85-3.36-1.31c-0.73-0.31-1.45-0.63-2.17-0.95
			c1.37-1.31,2.66-2.74,3.91-4.23c0.81,2.01,1.69,3.98,2.72,5.8C213.05,232.19,212.68,232.42,212.3,232.62z M213.43,233.03
			c0.15-0.09,0.3-0.19,0.44-0.29c0.12,0.2,0.23,0.39,0.36,0.58C213.97,233.22,213.7,233.12,213.43,233.03z M216.02,233.91
			c-0.44-0.61-0.85-1.24-1.25-1.89c0.19-0.16,0.37-0.32,0.54-0.46c1.66-1.39,3.28-2.8,4.85-4.32c0.76,1.71,1.53,3.42,2.34,5.09
			c0.12,0.25,0.24,0.51,0.35,0.77c-0.76,0.78-1.55,1.49-2.38,2.1C218.98,234.8,217.49,234.37,216.02,233.91z M221.46,235.44
			c0.64-0.37,1.23-0.9,1.79-1.46c0.33,0.74,0.67,1.48,1.08,2.13C223.37,235.91,222.41,235.68,221.46,235.44z M230.97,237.28
			c-1.68-0.23-3.36-0.51-5.03-0.83c-0.02-0.04-0.04-0.08-0.08-0.11c-0.78-0.72-1.37-1.89-1.89-3.08c1.63-1.67,3.19-3.47,4.72-5.29
			c0.4-0.48,0.8-0.97,1.2-1.45c1.3,2.71,2.75,5.32,4.28,7.84C233.21,235.46,232.02,236.78,230.97,237.28z M232.13,237.43
			c0.46-0.33,0.9-0.76,1.34-1.18c0.39-0.37,0.78-0.74,1.18-1.11c0.57,0.92,1.16,1.84,1.75,2.73
			C234.97,237.76,233.55,237.61,232.13,237.43z M237.83,237.99c-0.79-1.2-1.57-2.43-2.33-3.67c1.08-1.02,2.15-2.06,3.19-3.16
			c1.06-1.13,2.08-2.29,3.06-3.51c1.32,2.51,2.53,5.17,3.95,7.61c-1.24,1.14-2.55,2.12-3.95,2.89
			C240.44,238.13,239.13,238.08,237.83,237.99z M242.92,238.19c1.15-0.54,2.24-1.25,3.28-2.09c0.44,0.71,0.89,1.4,1.38,2.05
			C246.03,238.2,244.47,238.21,242.92,238.19z M249.03,238.1c-0.7-0.86-1.34-1.79-1.94-2.75c2.25-2.05,4.23-4.7,5.98-7.58
			c0.78,1.35,1.52,2.72,2.38,4c0.93,1.38,1.91,2.7,2.84,4.09c-0.39,0.53-0.78,1.05-1.2,1.57
			C254.41,237.74,251.72,237.98,249.03,238.1z M258.08,237.29c0.25-0.2,0.49-0.41,0.72-0.64c0.11,0.17,0.22,0.33,0.33,0.51
			C258.78,237.2,258.43,237.24,258.08,237.29z M260.25,236.99c-0.22-0.4-0.44-0.79-0.67-1.18c1.69-1.97,3.04-4.55,4.26-6.84
			c0.66,1.09,1.3,2.19,1.93,3.31c0.65,1.17,1.33,2.32,2.17,3.29C265.38,236.12,262.82,236.6,260.25,236.99z M266.02,230.53
			c-0.5-0.91-1.04-1.78-1.59-2.65c0.83-1.53,1.67-3.05,2.44-4.61c0.47-0.96,0.9-1.95,1.32-2.93c0.73,1.32,1.46,2.62,2.31,3.83
			c0.91,1.29,1.86,2.53,2.79,3.79c-1.21,2.57-2.53,5.07-4.21,7.17C267.8,233.93,266.91,232.15,266.02,230.53z M274.44,233.94
			c-1.54,0.43-3.09,0.83-4.64,1.19c1.68-1.81,2.97-3.98,4.15-6.27c0.19,0.26,0.37,0.51,0.56,0.78c0.79,1.12,1.45,2.75,2.48,3.62
			C276.12,233.48,275.27,233.71,274.44,233.94z M278.08,232.51c-1.36-0.92-2.24-3.02-3.24-4.43c-0.1-0.14-0.2-0.28-0.3-0.42
			c0.35-0.7,0.68-1.41,1.02-2.12c0.64-1.33,1.27-3.01,2-4.61c0.78,0.94,1.57,1.86,2.29,2.79c0.71,0.93,1.37,1.91,2.04,2.89
			c-1.16,2.07-2.38,4.1-3.64,6.09C278.21,232.63,278.16,232.57,278.08,232.51z M278.7,232.8c1.39-1.63,2.65-3.4,3.82-5.27
			c0.87,1.25,1.76,2.47,2.81,3.52C283.08,231.67,280.85,232.24,278.7,232.8z M289.7,229.71c-0.03,0.03-0.04,0.06-0.05,0.09
			c-1.04,0.32-2.08,0.63-3.11,0.92c-0.02-0.03-0.05-0.06-0.07-0.08c-1.29-1.15-2.34-2.58-3.36-4.07c0.88-1.47,1.7-2.98,2.49-4.53
			c1.46,2.41,3.12,4.65,4.99,6.52C290.31,228.96,290.02,229.35,289.7,229.71z M290.64,229.49c0.16-0.14,0.32-0.28,0.47-0.44
			c0.08,0.07,0.15,0.15,0.23,0.22C291.1,229.35,290.87,229.42,290.64,229.49z M292.62,228.84c-0.02-0.03-0.04-0.05-0.07-0.07
			c-0.23-0.2-0.46-0.41-0.69-0.61c0.9-1.19,1.62-2.63,2.3-3.92c0.26-0.5,0.52-0.99,0.79-1.48c1.03,1.37,2.09,2.7,3.23,3.94
			C296.36,227.49,294.5,228.2,292.62,228.84z M295.64,221.48c0.92-1.69,1.85-3.36,2.81-5.03c0.64,0.92,1.44,1.7,2.19,2.48
			c0.61,0.64,1.12,1.49,1.64,2.33c-0.92,1.76-1.95,3.39-3.18,4.68C297.87,224.62,296.75,223.06,295.64,221.48z M305.08,215.38
			c-0.76,1.59-1.5,3.27-2.3,4.89c-0.38-0.58-0.78-1.14-1.24-1.63c-0.92-0.97-1.83-1.89-2.67-2.92c0.2-0.35,0.4-0.7,0.61-1.04
			c0.07-0.13,0.11-0.25,0.11-0.36c1.59-0.21,3.17-0.46,4.75-0.76C304.5,214.21,304.77,214.81,305.08,215.38z M305.07,213.41
			c0.38-0.08,0.75-0.17,1.13-0.25c-0.2,0.36-0.39,0.73-0.58,1.12C305.43,213.99,305.26,213.7,305.07,213.41z M299.94,225.89
			c1.12-0.98,2.08-2.28,2.93-3.71c0.37,0.56,0.77,1.08,1.22,1.48C302.74,224.47,301.35,225.21,299.94,225.89z M308.51,220.57
			c-1.15,0.93-2.35,1.78-3.58,2.57c-0.58-0.54-1.06-1.22-1.52-1.91c0.84-1.54,1.6-3.18,2.34-4.75c0.09,0.14,0.18,0.28,0.27,0.42
			c0.76,1.15,1.64,2.22,2.55,3.21c-0.03,0.1-0.06,0.2-0.08,0.3C308.48,220.46,308.49,220.52,308.51,220.57z M306.98,216.36
			c-0.24-0.32-0.47-0.67-0.69-1.01c0.31-0.63,0.61-1.24,0.93-1.81c0.13-0.24,0.13-0.45,0.06-0.61c0.64-0.15,1.28-0.32,1.92-0.49
			c0.47,0.9,1.07,1.68,1.69,2.44c-0.09,0.17-0.17,0.33-0.26,0.5c-0.57,1.09-1.18,2.23-1.64,3.42
			C308.3,218,307.62,217.21,306.98,216.36z M310.12,212.17c0.39-0.11,0.78-0.23,1.17-0.35c0.53-0.17,1.07-0.32,1.62-0.47
			c-0.53,0.73-1,1.56-1.44,2.4C311.02,213.23,310.57,212.69,310.12,212.17z M309.69,219.58c-0.04-0.05-0.09-0.1-0.13-0.15
			c0.56-0.98,1.06-2.01,1.59-2.99c0.13-0.24,0.27-0.49,0.4-0.73c0.31,0.4,0.66,0.8,1.02,1.03
			C311.65,217.76,310.69,218.71,309.69,219.58z M313.33,215.86c-0.27-0.49-0.73-0.89-1.13-1.27c0.64-1.07,1.28-2.13,1.78-3.25
			c0.04-0.1,0.06-0.19,0.06-0.29c1.14-0.32,2.28-0.67,3.35-1.2C316.21,212.09,314.84,214.08,313.33,215.86z M310.39,210.98
			c-4.07,1.24-8.23,1.88-12.37,2.39c-8.3,1.03-16.6,1.58-24.9,1.8c-8.2,0.21-16.46,0.46-24.6-0.32c-4.46-0.43-8.85-1.2-13.22-2.1
			c5.79,0.65,11.58,1.21,17.43,1.51c11.72,0.59,23.5,0.42,35.27-0.62c9.88-0.88,19.76-2.47,29.55-4.89
			C315.2,209.7,312.82,210.24,310.39,210.98z M342.88,193.53c-1.82,1.06-3.65,2.09-5.46,3.18c-4.29,2.58-8.48,5.43-12.79,7.94
			c6.15-4.27,12.27-8.61,18.56-12.47C343.1,192.62,342.99,193.08,342.88,193.53z M347.91,190.4c-0.48,0.33-0.97,0.65-1.46,0.96
			c0.16-0.48,0.31-0.94,0.45-1.38c0.38-0.22,0.76-0.44,1.15-0.66C348,189.77,347.95,190.13,347.91,190.4z"/>
		<path class="st4" d="M168.84,283.84c-8.88,0-14.74-6-14.74-13.4c0-7.4,6-13.4,13.4-13.4c7.4,0,13.4,6,13.4,13.4"/>
		<path class="st6" d="M166.52,268.07c0.31,0.95,1.66,0.95,1.96,0l1.95-6.06c0.14-0.44-0.03-0.93-0.42-1.18l-0.07-0.04
			c-1.49-0.96-3.4-0.96-4.89,0l-0.07,0.04c-0.39,0.25-0.57,0.74-0.42,1.18L166.52,268.07z"/>
		<path class="st6" d="M166.52,272.93l-1.95,6.06c-0.14,0.44,0.03,0.93,0.42,1.18l0.07,0.04c1.08,0.69,2.37,0.88,3.57,0.57
			l-0.93-8.55C167.22,272.15,166.7,272.38,166.52,272.93z"/>
		<path class="st6" d="M158.66,268.93l6.25,1.25c0.98,0.2,1.64-0.98,0.96-1.71l-4.34-4.66c-0.32-0.34-0.83-0.43-1.24-0.21
			l-0.07,0.04c-1.56,0.83-2.5,2.5-2.38,4.27l0.01,0.08C157.86,268.45,158.2,268.83,158.66,268.93z"/>
		<path class="st6" d="M169.95,280.22l0.07-0.04c0.39-0.25,0.57-0.74,0.42-1.18l-1.95-6.06c-0.13-0.4-0.44-0.62-0.79-0.69l0.93,8.55
			C169.09,280.67,169.53,280.48,169.95,280.22z"/>
		<path class="st6" d="M170.09,270.13l6.23-1.35c0.46-0.1,0.79-0.49,0.81-0.96l0-0.08c0.09-1.77-0.87-3.42-2.45-4.23l-0.07-0.04
			c-0.41-0.21-0.92-0.12-1.24,0.23l-4.27,4.73C168.44,269.18,169.11,270.35,170.09,270.13z"/>
		<path class="st6" d="M177.18,273.1l0-0.08c-0.03-0.47-0.37-0.85-0.83-0.95l-6.25-1.25c-0.98-0.2-1.64,0.98-0.96,1.72l4.34,4.66
			c0.32,0.34,0.83,0.43,1.24,0.21l0.07-0.04C176.36,276.54,177.29,274.87,177.18,273.1z"/>
		<path class="st6" d="M164.91,270.87l-6.23,1.35c-0.46,0.1-0.79,0.49-0.81,0.96l0,0.08c-0.09,1.77,0.87,3.42,2.45,4.23l0.07,0.04
			c0.42,0.21,0.92,0.12,1.24-0.23l4.27-4.73C166.56,271.82,165.89,270.65,164.91,270.87z"/>
		<path class="st5" d="M165.06,280.22l-0.07-0.04c-0.39-0.25-0.57-0.74-0.42-1.18l1.95-6.06c0.18-0.55,0.71-0.77,1.18-0.69l-0.2-1.8
			l11.43,0c0,0,0,0,0,0c0-6.31-5.12-11.43-11.43-11.43c-6.32,0-11.43,5.12-11.43,11.43c0,6.32,5.12,11.43,11.43,11.43
			c0.42,0,0.83-0.03,1.24-0.07l-0.11-1.02C167.43,281.1,166.13,280.91,165.06,280.22z M174.61,263.48l0.07,0.04
			c1.58,0.81,2.53,2.46,2.45,4.23l0,0.08c-0.02,0.47-0.36,0.86-0.81,0.96l-6.23,1.35c-0.98,0.21-1.65-0.96-0.98-1.7l4.27-4.73
			C173.69,263.36,174.2,263.27,174.61,263.48z M164.99,260.83l0.07-0.04c1.49-0.96,3.4-0.96,4.89,0l0.07,0.04
			c0.39,0.25,0.57,0.74,0.42,1.18l-1.95,6.06c-0.31,0.95-1.66,0.95-1.96,0l-1.95-6.06C164.42,261.57,164.6,261.08,164.99,260.83z
			 M157.82,267.9c-0.11-1.77,0.82-3.44,2.38-4.27l0.07-0.04c0.41-0.22,0.92-0.13,1.24,0.21l4.34,4.66c0.68,0.73,0.03,1.91-0.96,1.71
			l-6.25-1.25c-0.46-0.09-0.8-0.48-0.83-0.95L157.82,267.9z M160.39,277.52l-0.07-0.04c-1.58-0.81-2.53-2.46-2.45-4.23l0-0.08
			c0.02-0.47,0.36-0.86,0.81-0.96l6.23-1.35c0.98-0.21,1.65,0.96,0.98,1.7l-4.27,4.73C161.31,277.64,160.8,277.73,160.39,277.52z"/>
		<path class="st5" d="M200.42,270.36l12.72-33.07c0.21-0.49,0.7-0.75,1.11-0.58l0.01,0.01c0.41,0.17,0.57,0.7,0.36,1.2
			l-12.41,32.33L200.42,270.36z"/>
		<g>
			<polygon class="st4" points="230.06,254.21 221.21,253.63 213.44,238.51 			"/>
			<polygon class="st4" points="221.21,253.63 208.91,249.61 213.44,238.51 			"/>
			<polygon class="st4" points="208.91,249.61 198.28,243.95 213.44,238.51 			"/>
			<polygon class="st4" points="213.44,238.51 198.28,243.95 190.79,237.64 			"/>
		</g>
		<polygon class="st5" points="197.2,318 194.41,318.64 177.34,241.6 180.13,240.96 		"/>
		<path class="st4" d="M171.55,296.99l0.51,0.85c1.01,1.7,1.62,3.62,1.77,5.59l1.53,20.24h29.34l1.53-20.24
			c0.15-1.98,0.75-3.89,1.77-5.59l0.51-0.85c0.94-1.58,1.53-3.34,1.73-5.17l2.32-21.38H167.5l2.32,21.38
			C170.02,293.65,170.61,295.41,171.55,296.99z"/>
		<circle class="st5" cx="193.35" cy="283.06" r="2.12"/>
		<path class="st5" d="M187.15,310.73c0,1.17-0.95,2.12-2.12,2.12c-1.17,0-2.12-0.95-2.12-2.12c0-1.17,0.95-2.12,2.12-2.12
			C186.2,308.6,187.15,309.55,187.15,310.73z"/>
		<path class="st5" d="M177.34,290.58c0,0.62-0.51,1.13-1.13,1.13c-0.62,0-1.13-0.51-1.13-1.13c0-0.62,0.51-1.13,1.13-1.13
			C176.84,289.45,177.34,289.95,177.34,290.58z"/>
		<path class="st5" d="M200.27,296.41c0,0.62-0.51,1.13-1.13,1.13c-0.63,0-1.13-0.51-1.13-1.13c0-0.62,0.51-1.13,1.13-1.13
			C199.77,295.28,200.27,295.78,200.27,296.41z"/>
		<path class="st5" d="M184.03,296.87c0,0.62-0.51,1.13-1.13,1.13c-0.63,0-1.13-0.51-1.13-1.13c0-0.62,0.51-1.13,1.13-1.13
			C183.53,295.74,184.03,296.25,184.03,296.87z"/>
	</g>
</g>
</svg>
