<?xml version="1.0" encoding="utf-8"?>
<!-- Generator: Adobe Illustrator 23.0.3, SVG Export Plug-In . SVG Version: 6.00 Build 0)  -->
<svg version="1.1" xmlns="http://www.w3.org/2000/svg" xmlns:xlink="http://www.w3.org/1999/xlink" x="0px" y="0px"
	 viewBox="0 0 455.72 334.08" style="enable-background:new 0 0 455.72 334.08;" xml:space="preserve">
<style type="text/css">
	.st0{display:none;}
	.st1{display:inline;}
	.st2{fill:none;stroke:#FFFFFF;stroke-width:2;stroke-miterlimit:10;}
	.st3{fill:none;stroke:#FFFFFF;stroke-width:4;stroke-miterlimit:10;}
	.st4{fill:#FFFFFF;}
</style>
<g id="Camada_2" class="st0">
	<rect x="-514.89" y="-1175.27" class="st1" width="369.41" height="310.66"/>
	<rect x="-125.77" y="-1175.27" class="st1" width="369.41" height="310.66"/>
	<rect x="263.45" y="-1175.27" class="st1" width="369.41" height="310.66"/>
	<rect x="652.67" y="-1175.27" class="st1" width="369.41" height="310.66"/>
	<rect x="-186.77" y="-904.91" class="st1" width="41.29" height="41.29"/>
</g>
<g id="Layer_1">
	<g>
		<path class="st2" d="M330.87,285.19c-21.22-3.72-44.72-5.79-69.45-5.79c-44.16,0-84.4,6.6-114.73,17.43"/>
		<path class="st2" d="M127.44,304.92c-16.27,8.08-27.92,17.68-33.38,28.16h334.72c-10.57-20.27-44.27-37.21-89.76-46.36"/>
		<path class="st3" d="M363.5,167.71c-0.24-10.36-11.32-26.21-11.32-26.21c1.13,12.53-5.27,25.73-5.27,25.73
			c1.5-0.54,3.82-0.67,6.25-0.6c-2.82,9.8-7.94,17.39-7.94,17.39c1.6-0.26,3.94,0.05,6.4,0.6c-3.57,10.18-9.91,18.73-9.91,18.73
			c1.94,0.06,5.07,0.62,8.3,1.32c-3.15,9.96-9.22,18.5-9.22,18.5c1.55,0.02,3.9,0.36,6.44,0.82c-3.98,10.73-10.18,18.88-10.18,18.88
			c2.16-0.32,5.38,0.19,8.65,0.98c-4.64,10.51-11.3,18.16-11.3,18.16c1.75-0.07,4.18,0.53,6.73,1.4
			c-6.84,9.81-15.98,17.05-15.98,17.05c1.8,0.55,4.47,1.76,7.29,3.18c-6.57,9.43-15.36,16.39-15.36,16.39
			c5.62,1.71,19.94,10.14,19.94,10.14c2.56-5.72,2.69-15.12,2.21-22.94c3.77,2.07,6.7,3.8,6.7,3.8c2.76-6.17,2.81-16.43,2.25-24.73
			c3.38,1.56,5.92,2.94,5.92,2.94c1.6-6.44,0.49-15.61-1.05-23.25c2.82,0.94,4.8,1.71,4.8,1.71c1.12-6.32-0.6-14.87-2.68-22.05
			c2.84,0.65,4.92,1.18,4.92,1.18c0.78-5.7-1.65-14.13-4.08-20.75c3.38,0.84,5.94,1.54,5.94,1.54c0.91-5.74-1.24-14.19-3.55-21.06
			c2.54,0.84,4.37,1.56,4.37,1.56c0.73-6.06-1.51-14.46-3.78-21.04C361.58,167.38,363.5,167.71,363.5,167.71z"/>
		<path class="st3" d="M353.84,144.16c0,0-10.62-44.52-31.42-52.7c-20.81-8.18-54.28-8.2-54.28-8.2s7.56,23.02,12.31,25.17
			c4.75,2.15,21.24-1.83,21.24-1.83l-11.34,12.43l13.91,9.55c0,0,10.88-10.19,16.36-10.57l-5.05,15.68
			C315.58,133.7,337.31,137.03,353.84,144.16z"/>
		<path class="st3" d="M353.34,144.11c0,0,1.84-36.84,18.91-47.51c17.07-10.66,40.99-12.09,40.99-12.09l-15.38,24.08l-10.88-4.1
			l3.89,13.24l-7.81,12.75l-14.06-5.94l8.21,12.12C377.22,136.66,364.49,139.9,353.34,144.11z"/>
		<path class="st3" d="M280.13,199.37c0,0,7.46-39.1,17.44-46.72c9.98-7.62,55.9-8.72,55.9-8.72l-18.57,25.6l-15.93-4.63l7.58,14.86
			l-13.15,12.84c0,0-6.63-20.57-9.32-19.13c-2.7,1.44-4.43,25.16-4.43,25.16L280.13,199.37z"/>
		<path class="st3" d="M452.57,179.38c0,0-14.19-35.46-36.54-39.42c-22.35-3.96-62.99,3.73-62.99,3.73l32.39,19.81l12.04-11
			l-0.61,17.64l26.32,5.04l-1.78-16.55l11.97,17.96L452.57,179.38z"/>
		<path class="st3" d="M401.22,226.86c0,0,12.98-29.62,5.6-39.49c-7.38-9.87-53.43-43.24-53.43-43.24l22.41,37.79l9.58-2.21
			l-6.1,8.97l6.28,17.66l10.73-7.4l-6.08,12.56C390.2,211.5,394.81,220.26,401.22,226.86z"/>
		<path class="st3" d="M140.03,285.06c4.06-1.26,7.87-2.28,10.39-2.61c0,0-10.54-11.62-17.46-26.16c3.58-0.6,6.93-0.86,9.24-0.38
			c0,0-7.16-11.63-11-26.61c4.51-0.33,8.9-0.29,11.7,0.61c0,0-6.44-12.2-9.35-27.31c3.47-0.05,6.68,0.02,8.74,0.34
			c0,0-6.17-12.67-8.16-26.59c4.44-0.21,8.72-0.26,11.31,0.08c0,0-6.53-12.75-9.03-27.06c3.38-0.19,6.56-0.09,8.63,0.61
			c0,0-5.13-11.21-6.71-24.84c3.25,0.45,6.3,1.13,8.17,2.18c0,0-5.59-18.94-1.32-35.32c0,0-18.2,18.6-20.81,32.3
			c0,0,2.61-0.02,6.11,0.15c-4.47,8.23-9.3,18.89-9.66,27.1c0,0,2.59-0.55,6.14-1.11c-4.59,8.62-9.31,19.36-9.36,27.18
			c0,0,3.55-0.37,8.22-0.74c-4.69,8.25-9.78,18.91-9.99,26.65c0,0,2.86-0.24,6.78-0.48c-4.35,9.08-8.52,20.06-8.42,28.69
			c0,0,2.81-0.59,6.76-1.21c-3.72,9.81-7.22,21.74-6.52,30.65c0,0,3.69-1.27,8.52-2.6c-2.57,10.9-4.76,24.54-2.46,33.34
			c0,0,4.27-1.64,9.73-3.57c-2.36,10.27-4.26,22.79-2.12,30.95c0,0,20.87-8.03,28.72-9.06C156.8,310.22,146.67,299.03,140.03,285.06
			z"/>
		<path class="st3" d="M142.37,95.14c0,0,23.92-56.77,53.35-63.04c29.43-6.27,73.88,1.08,73.88,1.08s-15.12,28.9-21.9,30.7
			c-6.77,1.8-27.81-7.12-27.81-7.12l12.31,19.01l-20.58,9.62c0,0-12.2-15.93-19.39-17.65l3.24,21.94
			C195.49,89.69,165.9,89.32,142.37,95.14z"/>
		<path class="st3" d="M143.05,95.18c0,0,5.69-49.33-14.63-67.25c-20.31-17.92-51.77-25.1-51.77-25.1L91.76,38.2l15.35-3.05
			l-8.08,16.73l7.55,18.66l19.98-4.8l-13.58,14.28C112.98,80.02,129.18,87.13,143.05,95.18z"/>
		<path class="st3" d="M228.07,184.71c0,0-1.29-53.56-12.86-65.88c-11.57-12.32-72.31-23.91-72.31-23.91L161.91,133l22.17-2.63
			l-13.34,18.06l14.63,19.95c0,0,13.34-25.85,16.6-23.34c3.26,2.51,0.33,34.39,0.33,34.39L228.07,184.71z"/>
		<path class="st3" d="M3.51,120.13c0,0,26.67-43.96,57.22-44.28c30.55-0.32,82.82,18.85,82.82,18.85l-47.37,19.17L82.62,96.59
			l-3.08,23.56l-36.05,0.88l6.01-21.58l-19.86,21.21L3.51,120.13z"/>
		<path class="st3" d="M61.22,194.51c0,0-10.71-42.2,1.27-53.68c11.98-11.48,80.49-45.63,80.49-45.63l-38.09,45.24l-12.23-5.04
			l6.12,13.25l-12.23,22.06l-12.61-12.2l5.31,18.01C79.24,176.53,71.18,187.15,61.22,194.51z"/>
		<path class="st4" d="M349.75,188.46c-0.02-0.16-0.06-0.34-0.14-0.53c-0.96,0.62,0.17,0.01-0.09-0.64
			c0.02-0.04,0.06,0.05,0.07,0.05c0,0-0.36-0.45-0.45-0.48c-0.22-0.07-0.42,0.07-0.62,0.14c-0.58,0.19-1.16,0.49-1.71,0.75
			c-1.21,0.56-2.38,1.19-3.53,1.86c-2.32,1.35-4.54,2.84-6.79,4.29c-4.04,2.62-7.97,5.41-11.81,8.3c-2.18,1.64-4.34,3.31-6.49,5
			c0-0.08-0.01-0.16-0.01-0.24c-0.18-0.02-0.34-0.12-0.41-0.32c-0.2-0.53-1.47-0.14-1.47,0.39c0,0.13-0.06,0.25-0.15,0.34
			c0.01,0.04,0.01,0.08,0.02,0.12c-22.66,5.67-45.78,6.71-68.49,5.29c-10.68-0.66-21.23-2.27-31.84-3.46
			c-3.02-0.34-6.04-0.69-9.05-1.09c-2.54-0.53-5.08-1.06-7.59-1.83c-4.12-1.27-8.13-2.95-12.14-4.63
			c-3.88-1.62-7.69-3.38-11.27-5.78c-1.06-0.71-2.11-1.47-3.16-2.24c-0.25-0.13-0.49-0.32-0.68-0.53c-0.13-0.09-0.27-0.19-0.39-0.3
			c0,0.01-0.01,0.02-0.01,0.03c-1.98-1.45-3.97-2.88-6.07-4.06c-0.34-0.19-0.66-0.73-0.93-1.01c-0.33-0.34-0.68-0.66-1.04-0.97
			c-0.7-0.62-1.44-1.19-2.2-1.72c-1.26-0.89-3.23-1.95-4.58-2.7c-0.28-0.16,0.13-0.77-0.23-1.02c-1.12-0.8-1.02,0.32-1.53,0.04
			c-0.26-0.14-0.52-0.29-0.77-0.44c-0.79-0.5-1.39-1.18-2.1-1.78c-0.68-0.58-1.35-1.16-2.02-1.74c-1.29-1.13-2.59-2.26-3.91-3.35
			c-0.8-0.65-1.61-1.29-2.43-1.91c0.03-0.14-0.74-0.47-1.33,0.2c-0.62,1.39-0.13,1.82,0,2.23c2.92,3.1,6.53,5.17,10.11,7.1
			c0.61,0.33,1.26,0.6,1.85,0.98c0.54,0.35,0.14,0.96,0.1,1.46c-0.06,0.88,1.64-0.03,1.77,0.07c0.59,0.49,1.18,0.98,1.77,1.46
			c1.44,1.16,2.92,2.29,4.49,3.28c0.85,0.54,1.73,1.04,2.64,1.48c0.39,0.47,0.76,0.97,1.1,1.49c-0.01,0.12,0,0.24,0.04,0.36
			c3.97,10.82,11,19.18,18.75,25.91c8.21,7.13,17.5,12.48,27.23,16.01c20.12,7.3,41.66,6.25,62.53,0.5
			c14.62-4.03,33.1-7.45,41.96-24.66c0.01,0.05,0.03,0.11,0.04,0.16c-0.02,0.35,1.18-0.21,1.39-0.44c0.27-0.29,0.64-0.87,0.08-1.18
			c0-0.01,0-0.02,0-0.03c5.94-2.89,11.55-6.76,17.26-10.33c1.67-1.04,3.36-2.02,5.04-3.01c0,0.02-0.01,0.04-0.02,0.06
			c0.14-0.1,0.28-0.2,0.43-0.3c0.92-0.67,1.85-1.33,2.91-1.75c1.3-0.5,2.63-1.68,3.76-2.49
			C348.59,190.21,349.87,189.62,349.75,188.46z M143.94,174.13c2.21,1.66,4.36,3.43,6.5,5.21
			C148.07,177.94,145.83,176.31,143.94,174.13z M234.13,214.02c0.28,0.9,0.6,1.77,0.95,2.63c-1.78,2.69-3.72,5.17-5.72,7.63
			c-0.92-1.96-1.88-3.85-2.87-5.7c1.3-1.81,2.62-3.62,4.06-5.31C231.74,213.52,232.93,213.78,234.13,214.02z M257.54,216.57
			c2.28,0.02,4.57,0,6.85-0.05c0,0,0,0.01,0,0.01c0.54,0.97,1.33,1.73,1.98,2.64c-0.32,0.7-0.63,1.41-0.94,2.12
			c-0.83,1.87-1.83,3.61-2.77,5.4c0,0,0,0,0,0.01c-0.16-0.25-0.32-0.5-0.48-0.76c-1.13-1.78-2.27-3.56-3.44-5.3
			c-0.56-0.84-1.2-1.65-1.79-2.5c0.18-0.4,0.35-0.79,0.52-1.18C257.54,216.82,257.56,216.69,257.54,216.57z M268.71,216.41
			c1.31-0.04,2.61-0.07,3.91-0.11c0.22-0.01,0.45-0.02,0.67-0.02c0.61,1.35,1.44,2.55,2.34,3.69c-0.46,1.08-0.87,2.15-1.28,3.01
			c-0.56,1.18-1.11,2.4-1.67,3.62c-1.07-1.46-2.17-2.89-3.25-4.34c-0.43-0.58-1.07-1.94-1.82-3.22c0.33-0.72,0.67-1.44,1.05-2.13
			C268.75,216.74,268.76,216.56,268.71,216.41z M287.23,215.48c0.35-0.03,0.69-0.05,1.04-0.09c1.25,1.99,2.75,3.76,4.09,5.65
			c0.16,0.22,0.32,0.43,0.47,0.65c-0.12,0.25-0.25,0.49-0.36,0.74c-0.81,1.68-1.61,3.42-2.58,5c-1.9-1.89-3.51-4.19-5.03-6.58
			c0.79-1.6,1.56-3.22,2.31-4.83C287.26,215.82,287.27,215.63,287.23,215.48z M289.2,215.31c2.29-0.21,4.59-0.46,6.89-0.74
			c0.08,0.26,0.18,0.51,0.29,0.74c-0.98,1.67-1.96,3.34-2.87,5.07C292.17,218.51,290.8,216.69,289.2,215.31z M284.18,219.77
			c-0.8-1.29-1.58-2.6-2.37-3.88c1.47-0.09,2.94-0.2,4.4-0.32C285.56,216.98,284.88,218.38,284.18,219.77z M283.63,220.85
			c-0.8,1.57-1.62,3.11-2.47,4.64c-0.61-0.91-1.23-1.83-1.88-2.69c-0.78-1.02-1.58-2.06-2.39-3.08c0.68-1.33,1.45-2.52,2.38-3.28
			c0.15-0.12,0.23-0.27,0.27-0.42c0.53-0.03,1.06-0.05,1.59-0.08C281.89,217.59,282.72,219.25,283.63,220.85z M276.16,218.8
			c-0.71-0.87-1.43-1.73-2.17-2.54c1.3-0.04,2.6-0.1,3.9-0.16C277.21,216.81,276.65,217.77,276.16,218.8z M266.94,218
			c-0.48-0.69-0.99-1.25-1.51-1.5c0.8-0.02,1.6-0.04,2.39-0.06C267.51,216.94,267.21,217.47,266.94,218z M257.24,220.09
			c1.3,1.99,2.57,4,3.84,6.02c0.34,0.55,0.69,1.1,1.03,1.65c-1.29,2.41-2.63,4.71-4.13,6.89c-1.68-2.75-3.55-5.36-5.23-8.09
			c1.43-2.46,2.69-5.05,3.81-7.51C256.77,219.4,257.02,219.74,257.24,220.09z M256.3,217.14c-0.12-0.2-0.23-0.39-0.34-0.59
			c0.2,0,0.4,0,0.6,0.01C256.47,216.75,256.39,216.94,256.3,217.14z M255.92,217.97c-1.14,2.49-2.41,5.06-3.84,7.53
			c-1.52-2.46-3.18-4.88-4.9-7.17c0.42-0.63,0.85-1.24,1.31-1.82c0.09-0.12,0.15-0.24,0.17-0.37c2.26,0.2,4.54,0.32,6.82,0.38
			C255.55,217.06,255.71,217.53,255.92,217.97z M251.46,226.56c-1.72,2.84-3.65,5.5-5.81,7.68c-1.43-2.47-2.65-5.17-4-7.69
			c0.64-0.82,1.26-1.65,1.87-2.51c1.03-1.47,1.98-3.09,2.97-4.65c1.46,2.18,3.1,4.22,4.51,6.4
			C251.15,226.05,251.31,226.3,251.46,226.56z M246.45,217.39c-0.42-0.54-0.84-1.08-1.26-1.6c0.73,0.09,1.47,0.16,2.2,0.24
			C247.06,216.46,246.75,216.92,246.45,217.39z M245.82,218.38c-0.53,0.87-1.05,1.74-1.6,2.56c-1.03,1.54-2.1,3.02-3.2,4.47
			c-1.57-2.87-3.13-5.76-4.71-8.62c0.41-0.64,0.81-1.28,1.19-1.95c0.04-0.07,0.06-0.13,0.08-0.18c2.24,0.39,4.49,0.73,6.75,1.02
			C244.78,216.63,245.28,217.52,245.82,218.38z M240.27,226.39c-0.34,0.43-0.68,0.86-1.03,1.29c-1.54,1.86-3.16,3.61-4.81,5.31
			c-0.08,0.08-0.17,0.18-0.26,0.28c-1.51-2.52-2.94-5.13-4.25-7.82c1.99-2.43,3.92-4.91,5.7-7.58
			C236.99,220.84,238.74,223.61,240.27,226.39z M235.7,215.7c-0.29-0.51-0.57-1.03-0.86-1.54c0.54,0.11,1.08,0.2,1.62,0.3
			C236.21,214.88,235.96,215.29,235.7,215.7z M228.59,225.22c-0.29,0.35-0.58,0.71-0.87,1.06c-1.56,1.9-3.13,4.02-4.83,5.88
			c-0.21-0.48-0.41-0.95-0.61-1.36c-0.7-1.45-1.37-2.93-2.02-4.41c2.1-2.12,3.88-4.55,5.65-7c0.91,1.83,1.72,3.74,2.57,5.61
			C228.52,225.07,228.55,225.14,228.59,225.22z M223.56,211.47c0.05,0.05,0.1,0.1,0.18,0.12c1.85,0.5,3.72,0.97,5.59,1.4
			c-1.19,1.44-2.3,2.98-3.4,4.53c-1.11-2.06-2.26-4.1-3.42-6.17C222.85,211.38,223.2,211.42,223.56,211.47z M225.04,217.7
			c0.11,0.2,0.21,0.41,0.32,0.61c-1.36,1.92-2.74,3.83-4.29,5.55c-0.43,0.48-0.86,0.94-1.29,1.4c-0.3-0.69-0.6-1.38-0.9-2.06
			c-0.75-1.72-1.54-3.42-2.32-5.12c0.92-1.08,1.87-2.14,2.86-3.13c0.92-0.92,1.99-1.92,2.48-3.26
			C222.72,213.85,223.96,215.73,225.04,217.7z M219.03,226c-1.06,1.07-2.14,2.11-3.25,3.11c-0.67,0.61-1.36,1.29-2.08,1.92
			c-1.07-1.88-1.98-3.89-2.81-5.96c1.29-1.59,2.56-3.23,3.85-4.83c0.37-0.46,0.74-0.91,1.11-1.36c0.86,1.89,1.72,3.78,2.55,5.68
			C218.61,225.04,218.82,225.52,219.03,226z M219.85,211.02c0.48,0.06,0.95,0.11,1.44,0.17c-0.73,1.38-1.88,2.35-2.92,3.37
			c-0.79,0.78-1.55,1.62-2.3,2.49c-0.12-0.27-0.25-0.54-0.37-0.81c-0.92-2-1.76-4.2-2.91-6.04
			C215.15,210.48,217.5,210.74,219.85,211.02z M211.91,210.11c0.12,0.01,0.24,0.03,0.36,0.04c0.57,2.37,1.69,4.56,2.65,6.67
			c0.16,0.35,0.31,0.69,0.47,1.03c-0.43,0.52-0.87,1.05-1.3,1.57c-1.23,1.49-2.42,3.03-3.63,4.54c-0.58-1.48-1.13-2.99-1.67-4.48
			c-0.45-1.22-0.93-2.57-1.46-3.92c1.42-1.82,2.86-3.6,4.45-5.19C211.85,210.3,211.89,210.21,211.91,210.11z M209.72,209.86
			c0.33,0.04,0.66,0.08,1,0.12c-1.43,1.19-2.69,2.76-3.9,4.39c-0.84-1.96-1.82-3.83-3.06-5.22
			C205.73,209.59,207.74,209.88,209.72,209.86z M206.13,215.3c-0.63,0.85-1.25,1.7-1.87,2.49c-0.93,1.17-2,2.62-3.16,3.9
			c-0.42-1.26-0.82-2.5-1.21-3.65c-0.47-1.38-0.98-2.72-1.51-4.04c1.55-1.56,3.07-3.17,4.7-4.59
			C204.27,211.14,205.25,213.18,206.13,215.3z M202.13,208.82c-1.44,1.31-2.81,2.74-4.19,4.15c-0.76-1.81-1.55-3.58-2.36-5.37
			C197.76,208.07,199.94,208.47,202.13,208.82z M194.85,207.43c0.66,2.15,1.52,4.21,2.37,6.28c-0.24,0.24-0.47,0.48-0.71,0.72
			c-1.24,1.24-2.49,2.29-3.79,3.19c-0.36-0.87-0.71-1.74-1.07-2.62c-0.76-1.91-1.48-3.89-2.25-5.82c1.02-0.79,2.05-1.57,3.11-2.31
			C193.29,207.07,194.07,207.26,194.85,207.43z M188.92,208c-0.35-0.84-0.72-1.68-1.11-2.49c1.03,0.34,2.06,0.64,3.09,0.93
			C190.22,206.88,189.56,207.44,188.92,208z M180.42,204.15c0.69-0.33,1.39-0.44,2.08-0.67c1.5,0.66,3.02,1.24,4.55,1.76
			c0.34,1.15,0.73,2.28,1.14,3.4c-0.29,0.26-0.58,0.51-0.86,0.74c-1.46,1.21-2.85,2.14-4.38,2.87c-0.96-2.01-1.83-4.12-2.81-6
			c-0.27-0.52-0.56-1.04-0.83-1.55C179.67,204.52,180.05,204.33,180.42,204.15z M179.19,203.52c-0.13,0.07-0.27,0.15-0.41,0.23
			c-0.4-0.73-0.8-1.45-1.18-2.19c-0.07-0.13-0.14-0.27-0.21-0.4c0.45,0.22,0.9,0.44,1.35,0.66c0.65,0.31,1.3,0.59,1.96,0.88
			C180.14,202.96,179.61,203.3,179.19,203.52z M167.58,191.69c1.15,0.98,2.32,1.92,3.53,2.8c0,0,0,0.01,0,0.01
			c0.22,0.13,0.42,0.28,0.6,0.45c0-0.01,0-0.01,0.01-0.02c4.52,3.24,9.39,5.84,14.33,7.93c0.67,0.28,1.34,0.56,2.02,0.85
			c-2.75-0.83-5.47-1.83-8.11-3.02c-2.94-1.33-5.93-2.94-8.57-5.1c0.01-0.02,0.01-0.03,0.02-0.04c-0.06-0.04-0.13-0.07-0.19-0.12
			c-0.11-0.07-0.22-0.15-0.32-0.25c0,0,0,0,0,0.01C169.69,194.15,168.57,192.99,167.58,191.69z M174.66,205.01
			c-2.08-2.87-3.94-5.98-5.5-9.32c2.11,1.97,4.5,3.5,6.95,4.81c0.57,0.93,0.99,2.02,1.46,3.02c0.11,0.23,0.23,0.46,0.35,0.69
			C176.86,204.77,175.73,205.24,174.66,205.01z M181.43,212.91c-2.12-2.11-4.13-4.39-5.99-6.85c0.69,0.06,1.49-0.27,2.14-0.54
			c0.27-0.12,0.54-0.24,0.82-0.37c0.68,1.31,1.4,2.6,2.06,3.92c0.58,1.16,1.12,2.36,1.67,3.56
			C181.91,212.73,181.67,212.82,181.43,212.91z M182.12,213.58c0.15-0.01,0.3-0.03,0.44-0.06c0.15,0.32,0.31,0.64,0.47,0.95
			C182.72,214.18,182.42,213.88,182.12,213.58z M185.65,216.83c-0.84-1.05-1.55-2.27-2.21-3.56c1.03-0.41,2.05-1.17,2.88-1.77
			c0.77-0.55,1.53-1.13,2.28-1.71c0.63,1.69,1.31,3.35,1.94,5.02c0.43,1.12,0.87,2.24,1.32,3.36c-0.89,0.56-1.81,1.04-2.79,1.47
			C187.92,218.73,186.77,217.79,185.65,216.83z M189.89,220.27c0.82-0.2,1.62-0.58,2.4-1.06c0.56,1.36,1.13,2.72,1.73,4.05
			C192.62,222.31,191.24,221.31,189.89,220.27z M195.58,224.3c-0.83-1.87-1.64-3.76-2.44-5.66c0.88-0.63,1.72-1.35,2.49-2.03
			c0.68-0.6,1.34-1.23,1.99-1.88c0.52,1.28,1.02,2.58,1.45,3.9c0.4,1.23,0.81,2.54,1.25,3.86c-1.18,1.18-2.45,2.11-3.8,2.41
			C196.21,224.7,195.89,224.51,195.58,224.3z M197.34,225.42c1.15-0.2,2.27-1.02,3.31-1.99c0.62,1.79,1.32,3.55,2.17,5.1
			C200.96,227.56,199.14,226.53,197.34,225.42z M204.64,229.44c-1.35-1.84-2.35-4.3-3.22-6.78c0.62-0.65,1.19-1.31,1.69-1.88
			c1.21-1.37,2.35-2.82,3.49-4.28c0.67,1.72,1.28,3.46,1.87,5.1c0.4,1.1,0.8,2.21,1.23,3.31c-1.41,1.71-2.86,3.36-4.46,4.81
			C205.04,229.62,204.84,229.53,204.64,229.44z M211.74,232.44c-1.11-0.41-2.23-0.84-3.33-1.3c-0.72-0.3-1.44-0.62-2.15-0.94
			c1.36-1.3,2.64-2.72,3.87-4.19c0.8,1.99,1.67,3.94,2.69,5.74C212.47,232.01,212.11,232.24,211.74,232.44z M212.86,232.84
			c0.15-0.09,0.3-0.18,0.44-0.29c0.12,0.19,0.23,0.39,0.35,0.58C213.38,233.03,213.12,232.93,212.86,232.84z M215.41,233.71
			c-0.43-0.6-0.84-1.23-1.23-1.87c0.18-0.16,0.36-0.31,0.53-0.46c1.64-1.38,3.25-2.77,4.81-4.28c0.75,1.7,1.51,3.38,2.31,5.04
			c0.12,0.24,0.23,0.5,0.35,0.76c-0.75,0.77-1.54,1.47-2.36,2.07C218.35,234.6,216.88,234.17,215.41,233.71z M220.8,235.23
			c0.63-0.37,1.21-0.89,1.77-1.44c0.32,0.73,0.66,1.47,1.07,2.11C222.69,235.69,221.74,235.47,220.8,235.23z M230.21,237.05
			c-1.67-0.23-3.33-0.5-4.98-0.83c-0.02-0.04-0.04-0.08-0.08-0.11c-0.77-0.71-1.36-1.87-1.88-3.05c1.62-1.65,3.16-3.44,4.67-5.24
			c0.4-0.48,0.8-0.96,1.19-1.44c1.29,2.68,2.72,5.27,4.24,7.77C232.43,235.24,231.26,236.55,230.21,237.05z M231.37,237.2
			c0.46-0.32,0.89-0.75,1.32-1.16c0.39-0.37,0.78-0.73,1.16-1.1c0.57,0.92,1.15,1.82,1.73,2.71
			C234.18,237.53,232.77,237.37,231.37,237.2z M237,237.76c-0.78-1.19-1.55-2.4-2.3-3.63c1.07-1.01,2.13-2.04,3.15-3.13
			c1.05-1.11,2.06-2.27,3.03-3.47c1.31,2.48,2.51,5.12,3.91,7.54c-1.23,1.13-2.53,2.1-3.91,2.86
			C239.59,237.89,238.3,237.84,237,237.76z M242.05,237.95c1.14-0.53,2.22-1.23,3.25-2.07c0.43,0.7,0.88,1.38,1.37,2.03
			C245.12,237.96,243.58,237.97,242.05,237.95z M248.09,237.86c-0.69-0.85-1.33-1.77-1.92-2.73c2.23-2.03,4.19-4.66,5.92-7.5
			c0.77,1.33,1.5,2.69,2.35,3.96c0.92,1.37,1.9,2.67,2.81,4.04c-0.38,0.52-0.78,1.04-1.19,1.55
			C253.42,237.51,250.75,237.74,248.09,237.86z M257.05,237.06c0.24-0.2,0.49-0.41,0.72-0.64c0.11,0.17,0.22,0.33,0.32,0.5
			C257.74,236.97,257.39,237.01,257.05,237.06z M259.2,236.76c-0.22-0.39-0.44-0.78-0.66-1.17c1.67-1.95,3.01-4.5,4.22-6.77
			c0.65,1.08,1.29,2.16,1.91,3.27c0.64,1.16,1.32,2.3,2.15,3.25C264.28,235.9,261.74,236.38,259.2,236.76z M264.91,230.37
			c-0.5-0.9-1.03-1.77-1.58-2.62c0.82-1.51,1.65-3.02,2.41-4.56c0.47-0.95,0.89-1.93,1.31-2.9c0.73,1.31,1.44,2.59,2.29,3.79
			c0.9,1.27,1.84,2.51,2.76,3.76c-1.2,2.54-2.51,5.02-4.17,7.1C266.67,233.73,265.79,231.97,264.91,230.37z M273.24,233.74
			c-1.53,0.43-3.06,0.82-4.59,1.18c1.66-1.79,2.94-3.94,4.1-6.21c0.18,0.26,0.37,0.51,0.55,0.77c0.78,1.11,1.43,2.72,2.45,3.58
			C274.91,233.29,274.07,233.51,273.24,233.74z M276.85,232.33c-1.35-0.91-2.21-2.99-3.2-4.39c-0.1-0.14-0.2-0.28-0.3-0.41
			c0.34-0.7,0.68-1.4,1.01-2.1c0.63-1.32,1.26-2.98,1.98-4.56c0.77,0.93,1.55,1.84,2.26,2.76c0.71,0.92,1.36,1.89,2.02,2.86
			c-1.15,2.05-2.35,4.05-3.6,6.03C276.98,232.45,276.93,232.38,276.85,232.33z M277.46,232.62c1.38-1.61,2.63-3.37,3.78-5.22
			c0.86,1.24,1.75,2.44,2.78,3.49C281.79,231.5,279.6,232.06,277.46,232.62z M288.35,229.56c-0.03,0.03-0.04,0.06-0.05,0.09
			c-1.03,0.31-2.05,0.62-3.08,0.91c-0.02-0.03-0.05-0.06-0.07-0.08c-1.27-1.14-2.32-2.56-3.32-4.03c0.87-1.45,1.69-2.95,2.47-4.48
			c1.45,2.39,3.09,4.61,4.94,6.45C288.95,228.82,288.66,229.2,288.35,229.56z M289.28,229.34c0.16-0.14,0.31-0.28,0.46-0.44
			c0.08,0.07,0.15,0.15,0.23,0.22C289.74,229.2,289.51,229.26,289.28,229.34z M291.24,228.7c-0.02-0.03-0.04-0.05-0.07-0.07
			c-0.23-0.19-0.45-0.4-0.68-0.61c0.89-1.18,1.61-2.6,2.27-3.88c0.26-0.49,0.52-0.98,0.78-1.46c1.02,1.36,2.07,2.67,3.2,3.9
			C294.94,227.36,293.1,228.06,291.24,228.7z M294.23,221.41c0.91-1.67,1.84-3.33,2.79-4.98c0.63,0.91,1.43,1.68,2.16,2.46
			c0.6,0.63,1.11,1.47,1.62,2.3c-0.91,1.74-1.93,3.36-3.15,4.63C296.44,224.52,295.33,222.97,294.23,221.41z M303.58,215.37
			c-0.75,1.57-1.48,3.24-2.27,4.84c-0.38-0.57-0.77-1.13-1.23-1.61c-0.91-0.96-1.81-1.87-2.64-2.89c0.2-0.35,0.4-0.69,0.6-1.03
			c0.07-0.13,0.11-0.24,0.11-0.35c1.57-0.21,3.14-0.46,4.7-0.75C303,214.21,303.26,214.81,303.58,215.37z M303.56,213.42
			c0.38-0.08,0.75-0.16,1.12-0.25c-0.2,0.36-0.39,0.73-0.58,1.11C303.93,213.99,303.75,213.7,303.56,213.42z M298.49,225.77
			c1.11-0.97,2.05-2.26,2.9-3.68c0.37,0.55,0.76,1.07,1.21,1.46C301.26,224.36,299.89,225.1,298.49,225.77z M306.97,220.5
			c-1.14,0.92-2.32,1.77-3.55,2.54c-0.57-0.54-1.05-1.2-1.51-1.89c0.83-1.52,1.58-3.15,2.32-4.71c0.09,0.14,0.18,0.28,0.27,0.41
			c0.75,1.14,1.63,2.19,2.53,3.18c-0.03,0.1-0.06,0.2-0.08,0.3C306.94,220.4,306.95,220.45,306.97,220.5z M305.45,216.34
			c-0.24-0.32-0.47-0.66-0.69-1c0.3-0.62,0.61-1.23,0.92-1.79c0.13-0.23,0.13-0.45,0.06-0.61c0.64-0.15,1.27-0.31,1.9-0.49
			c0.47,0.89,1.06,1.67,1.68,2.41c-0.08,0.16-0.17,0.33-0.26,0.49c-0.57,1.08-1.17,2.2-1.62,3.39
			C306.77,217.97,306.09,217.18,305.45,216.34z M308.56,212.19c0.39-0.11,0.77-0.23,1.16-0.34c0.53-0.17,1.06-0.32,1.6-0.46
			c-0.52,0.72-0.99,1.55-1.42,2.38C309.45,213.24,309.01,212.71,308.56,212.19z M308.14,219.53c-0.04-0.05-0.09-0.1-0.13-0.15
			c0.55-0.97,1.05-1.98,1.57-2.96c0.13-0.24,0.26-0.48,0.4-0.72c0.31,0.39,0.66,0.8,1.01,1.02
			C310.08,217.72,309.13,218.66,308.14,219.53z M311.74,215.84c-0.27-0.48-0.73-0.88-1.11-1.26c0.63-1.05,1.27-2.11,1.76-3.22
			c0.04-0.1,0.06-0.19,0.06-0.28c1.13-0.31,2.25-0.66,3.32-1.19C314.59,212.11,313.24,214.08,311.74,215.84z M308.83,211.01
			c-4.03,1.23-8.15,1.86-12.25,2.37c-8.22,1.02-16.43,1.56-24.65,1.78c-8.12,0.21-16.29,0.46-24.35-0.32
			c-4.41-0.42-8.76-1.19-13.09-2.08c5.73,0.64,11.47,1.2,17.25,1.49c11.6,0.59,23.26,0.42,34.92-0.61
			c9.78-0.87,19.56-2.44,29.25-4.84C313.6,209.75,311.24,210.29,308.83,211.01z M340.99,193.74c-1.8,1.05-3.61,2.07-5.4,3.15
			c-4.25,2.55-8.39,5.38-12.66,7.86c6.09-4.23,12.14-8.53,18.38-12.34C341.21,192.84,341.1,193.29,340.99,193.74z M345.98,190.64
			c-0.48,0.32-0.96,0.64-1.45,0.95c0.16-0.47,0.31-0.93,0.44-1.36c0.38-0.22,0.76-0.44,1.14-0.65
			C346.06,190.01,346.01,190.37,345.98,190.64z"/>
	</g>
</g>
</svg>
