<?xml version="1.0" encoding="UTF-8" standalone="no"?>
<!-- Created with Inkscape (http://www.inkscape.org/) -->

<svg
   xmlns:dc="http://purl.org/dc/elements/1.1/"
   xmlns:cc="http://creativecommons.org/ns#"
   xmlns:rdf="http://www.w3.org/1999/02/22-rdf-syntax-ns#"
   xmlns:svg="http://www.w3.org/2000/svg"
   xmlns="http://www.w3.org/2000/svg"
   xmlns:sodipodi="http://sodipodi.sourceforge.net/DTD/sodipodi-0.dtd"
   xmlns:inkscape="http://www.inkscape.org/namespaces/inkscape"
   width="2737"
   height="1678"
   version="1.1"
   viewBox="0 0 2737 1678"
   id="svg1032"
   sodipodi:docname="Logo FGS.svg"
   inkscape:version="0.92.3 (2405546, 2018-03-11)">
  <defs
     id="defs1036" />
  <sodipodi:namedview
     pagecolor="#ffffff"
     bordercolor="#666666"
     borderopacity="1"
     objecttolerance="10"
     gridtolerance="10"
     guidetolerance="10"
     inkscape:pageopacity="0"
     inkscape:pageshadow="2"
     inkscape:window-width="1366"
     inkscape:window-height="745"
     id="namedview1034"
     showgrid="false"
     inkscape:zoom="0.19890012"
     inkscape:cx="1795.1527"
     inkscape:cy="1264.485"
     inkscape:window-x="-8"
     inkscape:window-y="-8"
     inkscape:window-maximized="1"
     inkscape:current-layer="svg1032" />
  <metadata
     id="metadata1014">
    <rdf:RDF>
      <cc:Work
         rdf:about="">
        <dc:format>image/svg+xml</dc:format>
        <dc:type
           rdf:resource="http://purl.org/dc/dcmitype/StillImage" />
        <dc:title></dc:title>
      </cc:Work>
    </rdf:RDF>
  </metadata>
  <path
     style="fill:#d0dae9"
     inkscape:connector-curvature="0"
     id="path1016"
     d="m 194.52831,1677.4889 c -22.871,-2.179 -44.957,-8.5126 -67.5,-19.357 -45.475,-21.876 -80.104,-56.363 -102.02,-101.6 -7.9556,-16.421 -11.231,-25.288 -15.515,-42.01 -2.1478999,-8.3831 -3.1949999,-10.966 -4.4013999,-10.859 -1.4429,0.1282 -1.5575,-57.69 -1.2937,-652.99998 0.27693,-624.94 0.36755,-653.59 2.0989,-663.64 2.6063999,-15.124 7.9020999,-35.154 12.1789999,-46.061 22.817,-58.196 67.05,-102.420001 125.39,-125.380001 11.539,-4.54 31.643,-9.7618 47.061,-12.223 11.11,-1.7736 51.184,-1.8359 1180.99999,-1.8359 894.72,0 1172.4,0.2789 1182,1.1868 36.803,3.4944 77.186,21.535 110.21,49.237 42.29,35.473001 71.367,90.325001 74.782,141.080001 1.1817,17.559 1.2324,1275.19998 0.052,1291.99998 -2.7775,39.514 -20.839,82.796 -48.198,115.5 -30.605,36.584 -70.842,61.863 -116.35,73.099 -23.292,5.7506 60.057,5.386 -1204,5.2668 -938.71999,-0.089 -1164.59999,-0.3568 -1175.49999,-1.3959 z m 2332.59999,-97.061 c 39.599,-6.8519 75.467,-33.234 94.166,-69.262 6.0137,-11.586 9.4106,-20.854 12.426,-33.903 l 2.2521,-9.7439 0.2924,-615.99998 c 0.1973,-415.9 -0.042,-620.39 -0.7376,-629.5 -1.5101,-19.794 -5.4666,-34.821 -13.294,-50.492 -15.908,-31.849 -43.313,-55.715 -76.793,-66.877 -16.404,-5.4692 -20.888,-5.9637 -62.434,-6.8856 -21.45,-0.476 -538.5,-0.9509 -1149,-1.0553 -1068.69999,-0.1828 -1110.29999,-0.1223 -1118.99999,1.6249 -27.218,5.4882 -50.966,18.084 -70.041,37.149 -19.19,19.18 -31.388,41.691 -37.138,68.536 -1.7509,8.1751 -1.8124,32.31 -1.6089,631.5 0.14928,439.56998 0.53001,625.49998 1.2931,631.49998 7.6752,60.32 55.15,107.15 116.6,115.02 3.9666,0.508 492.24,0.6792 1150.49999,0.4035 1022.7,-0.4284 1144.6,-0.6416 1152.5,-2.0155 z"
     sodipodi:nodetypes="cccccsccccsccccccsccccccscsccscccsccscc" />
  <path
     style="fill:#9ab7dc"
     inkscape:connector-curvature="0"
     id="path1020"
     d="m 999.133,1675.6507 c -438.86997,-0.1442 -798.18997,-0.6221 -798.49997,-1.0621 -0.31,-0.44 -5.2836,-1.3751 -11.059,-2.078 -35.391,-4.3074 -74.199,-20.994 -104.389996,-44.885 -9.1322,-7.2268 -26.619,-24.713 -33.846,-33.846 -13.263,-16.76 -25.226,-37.625 -32.808,-57.224 -4.5384,-11.731 -11.1240001,-36.177 -13.1120001,-48.67 -0.9868,-6.2024 -1.3206,-46.347 -1.4887,-179 l -0.2167,-171 49.1370001,-40.681 c 27.025,-22.3749 49.493996,-40.4609 49.929996,-40.1909 0.4363,0.2697 0.7933,91.3049 0.7933,202.2999 0,175.58 0.1967,202.96 1.513,210.69 9.768,57.335 55.54,101.93 113.99,111.05 9.0356,1.4099 120.14,1.4988 1152.10007,0.9214 980.09,-0.5484 1143.4,-0.8408 1151.5,-2.0613 20.565,-3.1105 41.174,-11.463 58.171,-23.576 10.75,-7.6606 26.415,-23.759 33.543,-34.47 10.451,-15.703 17.649,-33.855 20.632,-52.027 1.5017,-9.1476 1.6091,-60.45 1.3287,-634.44998 l -0.3051,-624.5 -2.1616,-9.2818 c -6.4237,-27.583 -16.823,-47.26 -35.026,-66.272 -15.424,-16.11 -34.575,-28.119 -55.526,-34.82 -16.798,-5.372398 -24.446,-6.118198 -62.78,-6.122598 -29.385,-0.003 -34.853,-0.23213 -36.714,-1.5357 -4.1478,-2.9052 -102.76,-90.5149998 -104.16,-92.5419998 l -1.4067,-2.0311 102.41,0.39957 c 110.95,0.43291 110.7,0.42126 133.35,6.1509 39.908,10.0959998 73.985,29.8229998 103.13,59.7019998 30.718,31.490998 49.483,68.067998 58.666,114.349998 l 2.1826,11 0.3439,633 c 0.3438,632.73001 0.2797,647.49001 -2.9037,669.00001 -11.727,79.226 -69.418,147.45 -146.17,172.87 -10.964,3.6303 -22.612,6.3917 -39.372,9.3336 -11.264,1.9772 -78.172,2.0446 -1550.8,1.5607 z"
     sodipodi:nodetypes="cscccccscccsccsccccscsccccccsccccsccccc" />
  <path
     style="fill:#789ac8;stroke-width:1.00079417"
     inkscape:connector-curvature="0"
     id="path1022"
     d="m 1789.548,1674.0191 c -0.924,-0.9293 -24.6872,-21.4797 -52.8077,-45.6668 -28.1205,-24.1872 -51.1512,-44.3095 -51.1813,-44.7164 -0.03,-0.4063 187.657,-0.8623 417.0824,-1.0131 l 417.1325,-0.2741 10.5223,-2.6372 c 5.7872,-1.4505 13.4535,-3.7431 17.036,-5.0948 42.3877,-15.9925 74.0688,-51.4837 84.7033,-94.8897 l 2.5213,-10.2915 -0.04,-625.16854 c -0.044,-689.53432 0.4738,-634.73339 -6.1967,-655.62231 -14.9897,-46.93511 -52.9791,-80.90609 -101.9557,-91.17665 -8.2912,-1.738477 -14.66,-2.080096 -46.9383,-2.517164 l -37.346,-0.505722 -52.5943,-46.458363 c -28.9272,-25.552448 -52.5943,-46.8941292 -52.5943,-47.42684659 0,-0.62086081 36.406,-0.83213878 101.4647,-0.5888478 111.3155,0.41629923 108.0887,0.25412526 134.1739,6.72503359 60.7214,15.0630108 113.7406,57.8843008 141.4592,114.2494098 10.2788,20.89992 16.7114,41.46202 20.3872,65.16744 1.7973,11.59185 1.853,31.50329 1.6619,593.68516 -0.1086,319.9303 -0.5862,609.7966 -1.0612,644.1584 -0.8036,58.1331 -1.0154,63.2405 -3.0533,73.611 -8.9406,45.4978 -28.5735,82.7351 -60.2765,114.3294 -26.1534,26.0602 -57.5508,44.7522 -91.6319,54.5521 -12.4093,3.5679 -32.1831,7.3783 -38.29,7.3783 -1.8743,0 -3.4078,0.4497 -3.4078,0.9994 0,0.6646 -125.1448,0.9796 -373.5403,0.9401 -349.3692,-0.056 -373.6506,-0.1688 -375.2239,-1.7491 z"
     sodipodi:nodetypes="cscscccccsccscssssccsccccssscc" />
  <path
     style="fill:#4270ac"
     inkscape:connector-curvature="0"
     id="path1026"
     d="m 2634.9424,1437.8158 c 0,-0.7538 -0.2212,-275.2 -0.4874,-609.86997 -0.5272,-662.71002 -0.088,-616.10002 -5.9939,-636.39002 -12.363,-42.476 -45.702,-76.975 -87.515,-90.559 -17.867,-5.804396 -23.823,-6.420996 -62.683,-6.488696 l -36.183,-0.063 -2.8168,-2.6035 c -1.5493,-1.4319 -24.642,-21.895 -51.317,-45.474 -26.675,-23.579 -49.101,-43.451 -49.836,-44.161 -1.0905,-1.0532 17.249,-1.2353 100,-0.9931 92.496,0.2708 102.25,0.4548 111.84,2.1098 48.02,8.2921 87.822,28.494 120.48,61.147 33.016,33.016 53.688,74.088996 61.23,121.649996 2.0353,12.837 2.028,9.1895 1.545,778.49 l -0.25,398.16999 -44.75,34.767 c -24.612,19.122 -46.662,36.313 -49,38.204 -2.5984,2.1013 -4.2513,2.9044 -4.2534,2.0665 z"
     sodipodi:nodetypes="cscccccscscccsccccc" />
  <path
     style="fill:#204780"
     inkscape:connector-curvature="0"
     id="path1028"
     d="m 179.25705,956.19285 0.251,-513.25004 h 236 l 0.2533,146.9 c 0.1838,106.55 0.5608,147.27 1.3724,148.25 0.9318,1.1228 33.485,1.3484 194.5,1.3484 h 193.38 v 195.00004 h -193.3 c -149.01,0 -193.57,0.27494 -194.5,1.2 -0.9273,0.92733 -1.2,61.711 -1.2,267.50005 v 266.3 h -237 z m 951.71005,511.79005 c -45.506,-6.6297 -84.633,-28.353 -118.8,-65.958 -43.41305,-47.778 -73.85405,-123.32 -83.56905,-207.38 -3.598,-31.131 -3.712,-43.425 -3.3554,-361.70005 0.3205,-285.94004 0.4967,-314.25004 2.039,-327.50004 2.199,-18.886 5.2884,-38.889 8.0312,-52 l 2.1966,-10.5 114.50005,-0.2574 c 62.975,-0.1416 115.02,-0.059 115.66,0.1832 0.7734,0.2944 -0.1405,3.5934 -2.7535,9.9395 -7.4235,18.029 -14.019,44.567 -17.578,70.723 -1.5449,11.355 -1.7202,37.127 -2.0596,302.91 -0.3862,302.37009 -0.142,325.22009 3.7568,351.41009 4.0379,27.123 12.031,53.673 22.526,74.822 6.653,13.406 9.6819,17.808 17.139,24.905 9.1466,8.7058 18.996,12.967 34.285,14.832 12.872,1.5706 246.25,1.4142 247.83,-0.1661 1.7908,-1.7908 1.7413,-358.33009 -0.05,-359.49009 -0.6875,-0.44496 -46.475,-1.034 -101.75,-1.309 l -100.5,-0.5 v -191 h 418 v 729.00009 l -273.5,0.1413 c -213.47,0.1104 -275.37,-0.1317 -282.04,-1.1026 z m 677.28,-89.772 0.2553,-91.266 428,-1.0451 10.5,-2.638 c 12.771,-3.2085 22.749,-6.7475 34,-12.06 6.9165,-3.2654 9.9973,-5.5262 16.537,-12.135 13.317,-13.458 19.795,-29.228 26.857,-65.383 4.6441,-23.775 6.3772,-38.155 7.7386,-64.208 1.7629,-33.736 -0.6392,-72.634 -6.2081,-100.53 -11.942,-59.82205 -44.93,-90.38005 -108.92,-100.90005 -21.262,-3.4952 -31.139,-3.852 -126.5,-4.57 -104.03,-0.78331 -102.99,-0.72895 -127.94,-6.6657 -22.878,-5.4439 -48.946,-16.589 -68.064,-29.1 -75.321,-49.291 -119.04,-141.81004 -127.48,-269.76004 -2.1162,-32.097 -1.0768,-77.447 2.5097,-109.5 2.8146,-25.155 9.4735,-61.996 11.703,-64.75 0.7988,-0.9865 24.694,-1.25 113.39,-1.25 61.808,0 112.38,0.2793 112.38,0.6205 0,0.3413 -2.0051,6.8475 -4.4558,14.458 -9.0164,28.001 -12.803,55.035 -12.806,91.421 0,50.255 6.6726,85.58 22.386,118.44 13.417,28.062 29.12,45.592 49.376,55.124 16.712,7.8636 5.5896,7.2452 143,7.9505 131.87,0.6768 127.7,0.5157 152.31,5.8876 54.803,11.961 103.96,47.874 137.65,100.57002 32.592,50.977 52.115,119.54 57.524,202.03007 1.9902,30.348 1.0923,79.038 -2.047,111 -9.9065,100.86 -43.546,190.58 -92.973,247.95 -31.964,37.103 -66.852,59.204 -108.47,68.713 l -10,2.285 -530.51,0.5844 z m 825.5,-936.02009 -0.3012,-230.25 -2.2388,-9.7439 c -11.107,-48.34 -44.804,-86.101 -90.249,-101.13 -17.772,-5.879196 -24.96,-6.621796 -64.091,-6.621796 h -34.787 l -51.638,-45.75 c -28.401,-25.162 -52.38,-46.056 -53.287,-46.43 -0.907,-0.3738 43.351,-0.6665 98.351,-0.6503 55,0.016 98.875,0.3521 97.5,0.7466 -1.7249,0.4948 0.2925,0.9344 6.5065,1.4179 21.067,1.6389 50.67,10.133 71.994,20.658 23.014,11.359 40.766,24.376 59.536,43.658 31.629,32.488996 50.392,69.719996 58.637,116.349996 1.5242,8.6205 1.7123,26.791 2.0309,196.28 l 0.3511,186.78 -4.8523,5.2194 c -2.6687,2.8707 -24.523,26.482 -48.564,52.469 -24.042,25.988 -43.911,47.25 -44.155,47.25 -0.2433,0 -0.578,-103.61 -0.7436,-230.25 z m -268.51,170.82 c -29.878,-5.6854 -54.95,-21.877 -70.853,-45.757 -6.3346,-9.5121 -12.103,-22.339 -15.112,-33.605 -2.293,-8.5849 -2.5925,-11.611 -2.5925,-26.206 0,-14.595 0.2995,-17.621 2.5925,-26.206 9.7712,-36.582 36.606,-64.841 72.254,-76.087 17.01,-5.3665 39.78,-6.0851 57.112,-1.8024 41.906,10.355 74.236,45.77 80.426,88.101 1.6983,11.614 0.6973,32.26 -2.0603,42.495 -5.2402,19.45 -13.898,34.5 -27.945,48.576 -14.844,14.876 -30.144,23.704 -50.056,28.886 -10.905,2.8376 -33.028,3.6496 -43.765,1.6064 z m 37.265,-27.653 c 28.08,-6.7633 51.045,-29.37 58.698,-57.785 2.8839,-10.707 2.8785,-29.571 -0.012,-40.305 -7.724,-28.684 -31.611,-51.835 -60.187,-58.332 -21.569,-4.9036 -46.458,0.075 -64.346,12.871 -21.605,15.454 -33.64,38.935 -33.64,65.636 0,52.52 48.198,90.268 99.486,77.915 z m -60.22,-30.635 c -0.2587,-0.6709 0.01,-5.6209 0.5912,-11 1.2336,-11.365 3.0999,-49.523 3.4129,-69.78 l 0.2164,-14 22,-0.5 c 12.1,-0.275 27.118,-0.1968 33.374,0.1737 9.8937,0.586 12.185,1.0732 17.61,3.7435 9.0237,4.4424 11.904,8.9389 12.376,19.317 0.5999,13.209 -3.8557,20.706 -15.926,26.799 -3.3846,1.7085 -5.933,3.6574 -5.933,4.5372 0,1.9116 5.1801,14.426 11.94,28.844 2.8145,6.0031 4.9843,11.313 4.8219,11.8 -0.2717,0.8152 -28.509,1.43 -29.198,0.6357 -0.1674,-0.1929 -1.7597,-5.0758 -3.5386,-10.851 -1.7788,-5.775 -5.6622,-17.192 -8.6298,-25.37 -2.9676,-8.1786 -5.3956,-15.041 -5.3956,-15.25 0,-0.2088 2.3103,-0.3797 5.134,-0.3797 7.2002,0 12.229,-1.7472 15.885,-5.5193 6.0005,-6.191 4.6817,-16.037 -2.553,-19.06 -4.4648,-1.8655 -23.754,-1.9833 -25.272,-0.1544 -0.8864,1.068 -2.3117,29.614 -3.4776,69.647 l -0.2159,7.4135 -13.375,0.087 c -9.6678,0.062 -13.505,-0.2516 -13.845,-1.1333 z m -2162.60005,-166.95 c -0.3669,-0.3669 -0.667,-39.292 -0.667,-86.501 v -85.834 l 2370.49995,0.5009 v 172 l -1184.6,0.2504 c -651.51995,0.1377 -1184.89995,-0.05 -1185.29995,-0.4167 z" />
</svg>
